# Blender v2.78 (sub 0) OBJ File: 'Warnbake 06 - l.blend'
# www.blender.org
g Cube.004_Cube.006
v 0.175000 -0.218750 0.023438
v 0.175000 0.781250 0.023438
v 0.175000 -0.218750 -0.023438
v 0.175000 0.781250 -0.023438
v 0.425000 -0.218750 0.023438
v 0.425000 0.781250 0.023438
v 0.425000 -0.218750 -0.023438
v 0.425000 0.781250 -0.023438
vt 0.2500 1.0000
vt 0.0000 0.0000
vt 0.2500 0.0000
vt 0.5000 1.0000
vt 0.2500 0.0000
vt 0.5000 0.0000
vt 0.0000 1.0000
vt 0.2500 1.0000
vn 0.0000 0.0000 -1.0000
vn 0.0000 0.0000 1.0000
s off
f 4/1/1 7/2/1 3/3/1
f 6/4/2 1/5/2 5/6/2
f 4/1/1 8/7/1 7/2/1
f 6/4/2 2/8/2 1/5/2
g Cube.003_Cube.005
v 0.275000 0.812500 0.025000
v 0.275000 0.875000 0.025000
v 0.275000 0.812500 -0.025000
v 0.275000 0.875000 -0.025000
v 0.325000 0.812500 0.025000
v 0.325000 0.875000 0.025000
v 0.325000 0.812500 -0.025000
v 0.325000 0.875000 -0.025000
v 0.143750 -0.250000 0.031250
v 0.143750 0.812500 0.031250
v 0.143750 0.812500 -0.031250
v 0.143750 -0.250000 -0.031250
v 0.456250 -0.250000 -0.031250
v 0.456250 -0.250000 0.031250
v 0.175000 -0.218750 0.031250
v 0.456250 0.812500 0.031250
v 0.425000 0.781250 0.031250
v 0.425000 -0.218750 0.031250
v 0.175000 0.781250 0.031250
v 0.456250 0.812500 -0.031250
v 0.175000 0.781250 -0.031250
v 0.175000 -0.218750 -0.031250
v 0.425000 0.781250 -0.031250
v 0.425000 -0.218750 -0.031250
v 0.269063 -0.312500 0.031250
v 0.269063 -0.312500 -0.031250
v 0.330938 -0.312500 0.031250
v 0.330938 -0.312500 -0.031250
v 0.268750 -0.375000 0.031250
v 0.268750 -0.312500 0.031250
v 0.268750 -0.375000 -0.031250
v 0.268750 -0.312500 -0.031250
v 0.331250 -0.375000 0.031250
v 0.331250 -0.312500 0.031250
v 0.331250 -0.375000 -0.031250
v 0.331250 -0.312500 -0.031250
vt 0.3373 0.8675
vt 0.3855 0.8193
vt 0.3855 0.8675
vt 0.2410 0.8675
vt 0.2892 0.8193
vt 0.2892 0.8675
vt 0.1928 0.8675
vt 0.2410 0.8193
vt 0.2410 0.8675
vt 0.2892 0.8193
vt 0.3373 0.8675
vt 0.2892 0.8675
vt 0.4337 0.8675
vt 0.3855 0.8193
vt 0.4337 0.8193
vt 0.6024 0.0000
vt 0.6627 0.8193
vt 0.6024 0.8193
vt 0.8434 0.6024
vt 0.9036 0.9036
vt 0.8434 0.9036
vt 0.0000 0.8193
vt 0.0301 0.0241
vt 0.0301 0.7952
vt 0.2711 0.0241
vt 0.3012 0.0000
vt 0.2711 0.7952
vt 0.9639 0.9036
vt 0.9036 0.6024
vt 0.9639 0.6024
vt 0.3313 0.0241
vt 0.3012 0.0000
vt 0.5723 0.0241
vt 0.5723 0.7952
vt 0.6024 0.0000
vt 0.6024 0.8193
vt 0.7229 0.8193
vt 0.6627 0.0000
vt 0.7229 0.0000
vt 0.7831 0.0000
vt 0.8434 0.7711
vt 0.7831 0.7711
vt 0.9398 0.0000
vt 1.0000 0.2410
vt 0.9398 0.2410
vt 1.0000 0.4819
vt 0.9398 0.2410
vt 1.0000 0.2410
vt 0.7831 0.7711
vt 0.7229 0.0000
vt 0.7831 0.0000
vt 0.7831 0.8919
vt 0.7229 0.7711
vt 0.7831 0.7711
vt 0.8434 0.3012
vt 0.9398 0.1208
vt 0.9398 0.1804
vt 0.7831 0.7711
vt 0.8434 0.8919
vt 0.7831 0.8919
vt 0.8434 0.6024
vt 0.9398 0.4220
vt 0.9398 0.4816
vt 0.1446 0.8795
vt 0.1928 0.8193
vt 0.1928 0.8795
vt 0.0482 0.8193
vt 0.0000 0.8795
vt 0.0000 0.8193
vt 0.0964 0.8795
vt 0.1446 0.8193
vt 0.1446 0.8795
vt 0.0964 0.8193
vt 0.0482 0.8795
vt 0.0482 0.8193
vt 0.3373 0.8193
vt 0.2410 0.8193
vt 0.1928 0.8193
vt 0.3373 0.8193
vt 0.3855 0.8675
vt 0.6627 0.0000
vt 0.9036 0.6024
vt 0.3012 0.8193
vt 0.0000 0.0000
vt 0.9036 0.9036
vt 0.3313 0.7952
vt 0.3012 0.8193
vt 0.6627 0.8193
vt 0.8434 0.0000
vt 1.0000 0.0000
vt 0.9398 0.4819
vt 0.7229 0.7711
vt 0.7229 0.8919
vt 0.8434 0.0000
vt 0.8434 0.7711
vt 0.8434 0.3012
vt 0.1446 0.8193
vt 0.0482 0.8795
vt 0.0964 0.8795
vn -1.0000 0.0000 0.0000
vn 0.0000 0.0000 -1.0000
vn 1.0000 0.0000 0.0000
vn 0.0000 0.0000 1.0000
vn 0.0000 1.0000 0.0000
vn 0.0000 -1.0000 0.0000
vn -0.4463 -0.8949 0.0000
vn 0.4463 -0.8949 0.0000
s off
f 10/9/3 11/10/3 9/11/3
f 12/12/4 15/13/4 11/14/4
f 16/15/5 13/16/5 15/17/5
f 14/18/6 9/19/6 13/20/6
f 12/21/7 14/22/7 16/23/7
f 18/24/3 20/25/3 17/26/3
f 21/27/8 17/28/8 20/29/8
f 22/30/6 25/31/6 26/32/6
f 27/33/6 18/34/6 23/35/6
f 19/36/7 24/37/7 28/38/7
f 29/39/4 19/40/4 31/41/4
f 32/42/4 28/43/4 21/44/4
f 28/45/5 22/46/5 21/47/5
f 23/48/5 29/49/5 27/50/5
f 31/51/8 27/52/8 29/53/8
f 30/54/7 26/55/7 32/56/7
f 32/57/3 25/58/3 31/59/3
f 17/60/9 34/61/9 33/62/9
f 20/63/4 36/64/4 34/65/4
f 21/66/10 35/67/10 36/68/10
f 22/69/6 33/70/6 35/71/6
f 38/72/3 39/73/3 37/74/3
f 40/75/4 43/76/4 39/77/4
f 44/78/5 41/79/5 43/80/5
f 42/81/6 37/82/6 41/83/6
f 10/9/3 12/84/3 11/10/3
f 12/12/4 16/85/4 15/13/4
f 16/15/5 14/86/5 13/16/5
f 14/18/6 10/87/6 9/19/6
f 12/21/7 10/88/7 14/22/7
f 18/24/3 19/89/3 20/25/3
f 21/27/8 22/90/8 17/28/8
f 26/32/6 23/35/6 17/91/6
f 22/30/6 24/92/6 25/31/6
f 26/32/6 17/91/6 22/30/6
f 27/33/6 25/31/6 24/92/6
f 18/34/6 17/91/6 23/35/6
f 27/33/6 24/92/6 18/34/6
f 19/36/7 18/93/7 24/37/7
f 29/39/4 30/94/4 20/95/4
f 19/40/4 28/43/4 31/41/4
f 29/39/4 20/95/4 19/40/4
f 20/95/4 30/94/4 32/42/4
f 32/42/4 31/41/4 28/43/4
f 21/44/4 20/95/4 32/42/4
f 28/45/5 24/96/5 22/46/5
f 23/48/5 30/97/5 29/49/5
f 31/51/8 25/98/8 27/52/8
f 30/54/7 23/99/7 26/55/7
f 32/57/3 26/100/3 25/58/3
f 17/60/9 20/101/9 34/61/9
f 20/63/4 21/102/4 36/64/4
f 21/66/10 22/103/10 35/67/10
f 22/69/6 17/104/6 33/70/6
f 38/72/3 40/105/3 39/73/3
f 40/75/4 44/106/4 43/76/4
f 44/78/5 42/81/5 41/79/5
f 42/81/6 38/107/6 37/82/6
g Cube_Cube.001
v 0.100000 -0.500000 0.400000
v 0.100000 -0.375000 0.240000
v 0.100000 -0.500000 -0.400000
v 0.100000 -0.375000 -0.240000
v 0.500000 -0.500000 0.400000
v 0.500000 -0.375000 0.240000
v 0.500000 -0.500000 -0.400000
v 0.500000 -0.375000 -0.240000
vt 0.3333 0.6066
vt 0.6667 0.3399
vt 0.6667 0.6733
vt 0.0000 0.0000
vt 0.3333 0.3399
vt 0.0000 0.3399
vt 0.0000 0.6066
vt 0.3333 0.3399
vt 0.3333 0.6733
vt 0.3333 0.0000
vt 0.6667 0.3399
vt 0.6667 0.3333
vt 1.0000 0.0000
vt 1.0000 0.3333
vt 0.8667 0.6733
vt 0.6667 0.3399
vt 0.8667 0.3399
vt 0.3333 0.4066
vt 0.3333 0.0000
vt 0.0000 0.4066
vt 0.6667 0.0000
vt 0.6667 0.0000
vt 0.6667 0.6733
vn -1.0000 0.0000 0.0000
vn 0.0000 0.7880 -0.6156
vn 1.0000 0.0000 0.0000
vn 0.0000 0.7880 0.6156
vn 0.0000 -1.0000 0.0000
vn 0.0000 1.0000 0.0000
s off
f 46/108/11 47/109/11 45/110/11
f 48/111/12 51/112/12 47/113/12
f 52/114/13 49/115/13 51/116/13
f 50/117/14 45/118/14 49/115/14
f 51/119/15 45/120/15 47/121/15
f 48/122/16 50/123/16 52/124/16
f 46/108/11 48/125/11 47/109/11
f 48/111/12 52/126/12 51/112/12
f 52/114/13 50/127/13 49/115/13
f 50/117/14 46/128/14 45/118/14
f 51/119/15 49/129/15 45/120/15
f 48/122/16 46/130/16 50/123/16
