# Blender v2.78 (sub 0) OBJ File: 'Leitkegel 02.blend'
# www.blender.org
g Cone
v 0.000000 -0.462500 -0.200000
v 0.000000 0.232500 -0.025000
v 0.039018 -0.462500 -0.196157
v 0.004877 0.232500 -0.024520
v 0.076537 -0.462500 -0.184776
v 0.009567 0.232500 -0.023097
v 0.111114 -0.462500 -0.166294
v 0.013889 0.232500 -0.020787
v 0.141421 -0.462500 -0.141421
v 0.017678 0.232500 -0.017678
v 0.166294 -0.462500 -0.111114
v 0.020787 0.232500 -0.013889
v 0.184776 -0.462500 -0.076537
v 0.023097 0.232500 -0.009567
v 0.196157 -0.462500 -0.039018
v 0.024520 0.232500 -0.004877
v 0.200000 -0.462500 -0.000000
v 0.025000 0.232500 -0.000000
v 0.196157 -0.462500 0.039018
v 0.024520 0.232500 0.004877
v 0.184776 -0.462500 0.076537
v 0.023097 0.232500 0.009567
v 0.166294 -0.462500 0.111114
v 0.020787 0.232500 0.013889
v 0.141421 -0.462500 0.141421
v 0.017678 0.232500 0.017678
v 0.111114 -0.462500 0.166294
v 0.013889 0.232500 0.020787
v 0.076537 -0.462500 0.184776
v 0.009567 0.232500 0.023097
v 0.039018 -0.462500 0.196157
v 0.004877 0.232500 0.024520
v -0.000000 -0.462500 0.200000
v -0.000000 0.232500 0.025000
v -0.039018 -0.462500 0.196157
v -0.004877 0.232500 0.024520
v -0.076537 -0.462500 0.184776
v -0.009567 0.232500 0.023097
v -0.111114 -0.462500 0.166294
v -0.013889 0.232500 0.020787
v -0.141421 -0.462500 0.141421
v -0.017678 0.232500 0.017678
v -0.166294 -0.462500 0.111114
v -0.020787 0.232500 0.013889
v -0.184776 -0.462500 0.076537
v -0.023097 0.232500 0.009567
v -0.196157 -0.462500 0.039018
v -0.024520 0.232500 0.004877
v -0.200000 -0.462500 -0.000000
v -0.025000 0.232500 -0.000000
v -0.196157 -0.462500 -0.039018
v -0.024520 0.232500 -0.004877
v -0.184776 -0.462500 -0.076537
v -0.023097 0.232500 -0.009567
v -0.166294 -0.462500 -0.111114
v -0.020787 0.232500 -0.013889
v -0.141421 -0.462500 -0.141422
v -0.017678 0.232500 -0.017678
v -0.111114 -0.462500 -0.166294
v -0.013889 0.232500 -0.020787
v -0.076536 -0.462500 -0.184776
v -0.009567 0.232500 -0.023097
v -0.039018 -0.462500 -0.196157
v -0.004877 0.232500 -0.024520
vt 0.9687 0.5711
vt 0.9863 0.0000
vt 1.0000 0.5711
vt 0.9512 0.0000
vt 0.9688 0.5711
vt 0.9375 0.5711
vt 0.9062 0.5711
vt 0.9238 0.0000
vt 0.9375 0.5711
vt 0.8750 0.5711
vt 0.8926 0.0000
vt 0.9063 0.5711
vt 0.8437 0.5711
vt 0.8613 0.0000
vt 0.8750 0.5711
vt 0.8262 0.0000
vt 0.8438 0.5711
vt 0.8125 0.5711
vt 0.7812 0.5711
vt 0.7988 0.0000
vt 0.8125 0.5711
vt 0.7500 0.5711
vt 0.7676 0.0000
vt 0.7813 0.5711
vt 0.7324 0.0000
vt 0.7500 0.5711
vt 0.7188 0.5711
vt 0.7012 0.0000
vt 0.7188 0.5711
vt 0.6875 0.5711
vt 0.6699 0.0000
vt 0.6875 0.5711
vt 0.6563 0.5711
vt 0.6387 0.0000
vt 0.6563 0.5711
vt 0.6250 0.5711
vt 0.5938 0.5711
vt 0.6113 0.0000
vt 0.6250 0.5711
vt 0.5762 0.0000
vt 0.5938 0.5711
vt 0.5625 0.5711
vt 0.5449 0.0000
vt 0.5625 0.5711
vt 0.5313 0.5711
vt 0.5000 0.5711
vt 0.5176 0.0000
vt 0.5312 0.5711
vt 0.4687 0.5711
vt 0.4863 0.0000
vt 0.5000 0.5711
vt 0.4375 0.5711
vt 0.4551 0.0000
vt 0.4687 0.5711
vt 0.4062 0.5711
vt 0.4238 0.0000
vt 0.4375 0.5711
vt 0.3750 0.5711
vt 0.3926 0.0000
vt 0.4063 0.5711
vt 0.3438 0.5711
vt 0.3613 0.0000
vt 0.3750 0.5711
vt 0.3262 0.0000
vt 0.3438 0.5711
vt 0.3125 0.5711
vt 0.2949 0.0000
vt 0.3125 0.5711
vt 0.2812 0.5711
vt 0.2500 0.5711
vt 0.2676 0.0000
vt 0.2813 0.5711
vt 0.2324 0.0000
vt 0.2500 0.5711
vt 0.2188 0.5711
vt 0.2012 0.0000
vt 0.2188 0.5711
vt 0.1875 0.5711
vt 0.1699 0.0000
vt 0.1875 0.5711
vt 0.1563 0.5711
vt 0.1387 0.0000
vt 0.1562 0.5711
vt 0.1250 0.5711
vt 0.1074 0.0000
vt 0.1250 0.5711
vt 0.0938 0.5711
vt 0.0762 0.0000
vt 0.0938 0.5711
vt 0.0625 0.5711
vt 0.0410 0.9714
vt 0.0293 0.9949
vt 0.0059 0.9832
vt 0.0449 0.0000
vt 0.0625 0.5711
vt 0.0312 0.5711
vt 0.0137 0.0000
vt 0.0312 0.5711
vt 0.0000 0.5711
vt 0.9824 0.0000
vt 0.9551 0.0000
vt 0.9199 0.0000
vt 0.8887 0.0000
vt 0.8574 0.0000
vt 0.8301 0.0000
vt 0.7949 0.0000
vt 0.7637 0.0000
vt 0.7363 0.0000
vt 0.7051 0.0000
vt 0.6738 0.0000
vt 0.6426 0.0000
vt 0.6074 0.0000
vt 0.5801 0.0000
vt 0.5488 0.0000
vt 0.5137 0.0000
vt 0.4824 0.0000
vt 0.4512 0.0000
vt 0.4199 0.0000
vt 0.3887 0.0000
vt 0.3574 0.0000
vt 0.3301 0.0000
vt 0.2988 0.0000
vt 0.2637 0.0000
vt 0.2363 0.0000
vt 0.2051 0.0000
vt 0.1738 0.0000
vt 0.1426 0.0000
vt 0.1113 0.0000
vt 0.0801 0.0000
vt 0.0020 0.9792
vt 0.0020 0.9753
vt 0.0059 0.9714
vt 0.0059 0.9675
vt 0.0098 0.9636
vt 0.0098 0.9597
vt 0.0137 0.9597
vt 0.0176 0.9558
vt 0.0215 0.9558
vt 0.0254 0.9558
vt 0.0293 0.9558
vt 0.0332 0.9597
vt 0.0371 0.9597
vt 0.0371 0.9636
vt 0.0410 0.9675
vt 0.0449 0.9753
vt 0.0449 0.9792
vt 0.0410 0.9832
vt 0.0410 0.9871
vt 0.0371 0.9910
vt 0.0371 0.9910
vt 0.0332 0.9949
vt 0.0254 0.9949
vt 0.0215 0.9949
vt 0.0176 0.9949
vt 0.0137 0.9949
vt 0.0098 0.9910
vt 0.0098 0.9910
vt 0.0059 0.9871
vt 0.0488 0.0000
vt 0.0176 0.0000
vn 0.0951 0.2431 -0.9653
vn 0.2816 0.2431 -0.9282
vn 0.4573 0.2431 -0.8555
vn 0.6154 0.2431 -0.7498
vn 0.7498 0.2431 -0.6154
vn 0.8555 0.2431 -0.4573
vn 0.9282 0.2431 -0.2816
vn 0.9653 0.2431 -0.0951
vn 0.9653 0.2431 0.0951
vn 0.9282 0.2431 0.2816
vn 0.8555 0.2431 0.4573
vn 0.7498 0.2431 0.6154
vn 0.6154 0.2431 0.7498
vn 0.4573 0.2431 0.8555
vn 0.2816 0.2431 0.9282
vn 0.0951 0.2431 0.9653
vn -0.0951 0.2431 0.9653
vn -0.2816 0.2431 0.9282
vn -0.4573 0.2431 0.8555
vn -0.6154 0.2431 0.7498
vn -0.7498 0.2431 0.6154
vn -0.8555 0.2431 0.4573
vn -0.9282 0.2431 0.2816
vn -0.9653 0.2431 0.0951
vn -0.9653 0.2431 -0.0951
vn -0.9282 0.2431 -0.2816
vn -0.8555 0.2431 -0.4573
vn -0.7498 0.2431 -0.6154
vn -0.6154 0.2431 -0.7498
vn -0.4573 0.2431 -0.8555
vn 0.0000 1.0000 -0.0000
vn -0.2816 0.2431 -0.9282
vn -0.0951 0.2431 -0.9653
vn 0.0000 1.0000 0.0001
s off
f 1/1/1 4/2/1 3/3/1
f 4/4/2 5/5/2 3/6/2
f 5/7/3 8/8/3 7/9/3
f 7/10/4 10/11/4 9/12/4
f 9/13/5 12/14/5 11/15/5
f 12/16/6 13/17/6 11/18/6
f 13/19/7 16/20/7 15/21/7
f 15/22/8 18/23/8 17/24/8
f 18/25/9 19/26/9 17/27/9
f 20/28/10 21/29/10 19/30/10
f 22/31/11 23/32/11 21/33/11
f 24/34/12 25/35/12 23/36/12
f 25/37/13 28/38/13 27/39/13
f 28/40/14 29/41/14 27/42/14
f 30/43/15 31/44/15 29/45/15
f 31/46/16 34/47/16 33/48/16
f 33/49/17 36/50/17 35/51/17
f 35/52/18 38/53/18 37/54/18
f 37/55/19 40/56/19 39/57/19
f 39/58/20 42/59/20 41/60/20
f 41/61/21 44/62/21 43/63/21
f 44/64/22 45/65/22 43/66/22
f 46/67/23 47/68/23 45/69/23
f 47/70/24 50/71/24 49/72/24
f 50/73/25 51/74/25 49/75/25
f 52/76/26 53/77/26 51/78/26
f 54/79/27 55/80/27 53/81/27
f 56/82/28 57/83/28 55/84/28
f 58/85/29 59/86/29 57/87/29
f 60/88/30 61/89/30 59/90/30
f 38/91/31 22/92/31 6/93/31
f 62/94/32 63/95/32 61/96/32
f 64/97/33 1/98/33 63/99/33
f 1/1/1 2/100/1 4/2/1
f 4/4/2 6/101/2 5/5/2
f 5/7/3 6/102/3 8/8/3
f 7/10/4 8/103/4 10/11/4
f 9/13/5 10/104/5 12/14/5
f 12/16/6 14/105/6 13/17/6
f 13/19/7 14/106/7 16/20/7
f 15/22/8 16/107/8 18/23/8
f 18/25/9 20/108/9 19/26/9
f 20/28/10 22/109/10 21/29/10
f 22/31/11 24/110/11 23/32/11
f 24/34/12 26/111/12 25/35/12
f 25/37/13 26/112/13 28/38/13
f 28/40/14 30/113/14 29/41/14
f 30/43/15 32/114/15 31/44/15
f 31/46/16 32/115/16 34/47/16
f 33/49/17 34/116/17 36/50/17
f 35/52/18 36/117/18 38/53/18
f 37/55/19 38/118/19 40/56/19
f 39/58/20 40/119/20 42/59/20
f 41/61/21 42/120/21 44/62/21
f 44/64/22 46/121/22 45/65/22
f 46/67/23 48/122/23 47/68/23
f 47/70/24 48/123/24 50/71/24
f 50/73/25 52/124/25 51/74/25
f 52/76/26 54/125/26 53/77/26
f 54/79/27 56/126/27 55/80/27
f 56/82/28 58/127/28 57/83/28
f 58/85/29 60/128/29 59/86/29
f 60/88/30 62/129/30 61/89/30
f 6/93/31 4/130/31 2/131/31
f 2/131/31 64/132/31 6/93/31
f 62/133/31 60/134/31 58/135/31
f 58/135/31 56/136/31 54/137/31
f 54/137/31 52/138/31 50/139/31
f 50/139/31 48/140/31 54/137/31
f 46/141/31 44/142/31 42/143/31
f 42/143/31 40/144/31 46/141/31
f 38/91/31 36/145/31 34/146/31
f 34/146/34 32/147/34 30/148/34
f 30/148/31 28/149/31 22/92/31
f 26/150/31 24/151/31 22/92/31
f 22/92/31 20/152/31 18/153/31
f 18/153/31 16/154/31 22/92/31
f 14/155/31 12/156/31 10/157/31
f 10/157/31 8/158/31 14/155/31
f 6/93/31 64/132/31 62/133/31
f 62/133/31 58/135/31 54/137/31
f 54/137/31 48/140/31 46/141/31
f 46/141/31 40/144/31 38/91/31
f 38/91/31 34/146/31 22/92/31
f 28/149/31 26/150/31 22/92/31
f 22/92/31 16/154/31 14/155/31
f 14/155/31 8/158/31 6/93/31
f 6/93/31 62/133/31 54/137/31
f 54/137/31 46/141/31 38/91/31
f 34/146/31 30/148/31 22/92/31
f 22/92/31 14/155/31 6/93/31
f 6/93/31 54/137/31 38/91/31
f 62/94/32 64/159/32 63/95/32
f 64/97/33 2/160/33 1/98/33
g Cylinder
v 0.217963 -0.500000 -0.300000
v 0.217963 -0.430000 -0.300000
v 0.300000 -0.500000 -0.217963
v 0.300000 -0.430000 -0.217963
v 0.300000 -0.500000 0.217963
v 0.300000 -0.430000 0.217963
v 0.217963 -0.500000 0.300000
v 0.217963 -0.430000 0.300000
v -0.217963 -0.500000 0.300000
v -0.217963 -0.430000 0.300000
v -0.300000 -0.500000 0.217962
v -0.300000 -0.430000 0.217962
v -0.300000 -0.500000 -0.217963
v -0.300000 -0.430000 -0.217963
v -0.217962 -0.500000 -0.300000
v -0.217962 -0.430000 -0.300000
vt 0.6236 0.3633
vt 0.6854 0.7265
vt 0.6236 0.7265
vt 0.5618 0.5566
vt 0.6236 0.4600
vt 0.6236 0.5566
vt 0.6236 0.0000
vt 0.6854 0.3633
vt 0.6236 0.3633
vt 0.5000 0.4600
vt 0.5618 0.3633
vt 0.5618 0.4600
vt 0.5618 0.0000
vt 0.6236 0.3633
vt 0.5618 0.3633
vt 0.6236 0.3633
vt 0.5618 0.4600
vt 0.5618 0.3633
vt 0.5000 0.0000
vt 0.5618 0.3633
vt 0.5000 0.3633
vt 0.5000 0.5566
vt 0.5618 0.4600
vt 0.5618 0.5566
vt 0.4316 0.5000
vt 0.5000 0.9316
vt 0.0000 0.5684
vt 0.5000 0.0684
vt 0.4316 0.5000
vt 0.0000 0.4316
vt 0.6854 0.3633
vt 0.5618 0.4600
vt 0.6854 0.0000
vt 0.5000 0.3633
vt 0.6236 0.0000
vt 0.6236 0.4600
vt 0.5618 0.0000
vt 0.5000 0.4600
vt 0.0684 1.0000
vt 0.0000 0.9316
vt 0.0684 0.5000
vt 0.5000 0.5684
vt 0.4316 1.0000
vt 0.0000 0.0684
vt 0.0684 0.0000
vt 0.4316 0.0000
vt 0.5000 0.4316
vt 0.0684 0.5000
vn 0.0000 0.0000 -1.0000
vn 0.7071 0.0000 -0.7071
vn 1.0000 0.0000 0.0000
vn 0.7071 0.0000 0.7071
vn -0.0000 0.0000 1.0000
vn -0.7071 0.0000 0.7071
vn -1.0000 0.0000 -0.0000
vn -0.7071 0.0000 -0.7071
vn 0.0000 1.0000 0.0000
vn 0.0000 -1.0000 -0.0000
s off
f 66/161/35 79/162/35 80/163/35
f 66/164/36 67/165/36 65/166/36
f 70/167/37 67/168/37 68/169/37
f 70/170/38 71/171/38 69/172/38
f 74/173/39 71/174/39 72/175/39
f 74/176/40 75/177/40 73/178/40
f 78/179/41 75/180/41 76/181/41
f 78/182/42 79/183/42 77/184/42
f 76/185/43 72/186/43 80/187/43
f 71/188/44 75/189/44 79/190/44
f 66/161/35 65/191/35 79/162/35
f 66/164/36 68/192/36 67/165/36
f 70/167/37 69/193/37 67/168/37
f 70/170/38 72/194/38 71/171/38
f 74/173/39 73/195/39 71/174/39
f 74/176/40 76/196/40 75/177/40
f 78/179/41 77/197/41 75/180/41
f 78/182/42 80/198/42 79/183/42
f 68/199/43 66/200/43 80/187/43
f 80/187/43 78/201/43 76/185/43
f 76/185/43 74/202/43 72/186/43
f 72/186/43 70/203/43 68/199/43
f 68/199/43 80/187/43 72/186/43
f 79/190/44 65/204/44 67/205/44
f 67/205/44 69/206/44 71/188/44
f 71/188/44 73/207/44 75/189/44
f 75/189/44 77/208/44 79/190/44
f 79/190/44 67/205/44 71/188/44
