# Blender v2.78 (sub 0) OBJ File: 'Marker 01.blend'
# www.blender.org
g Cylinder.001_Cylinder.002
v 0.009755 0.500000 -0.049039
v 0.027779 0.500000 -0.041573
v 0.041573 0.500000 -0.027779
v 0.049039 0.500000 -0.009755
v 0.049039 0.500000 0.009755
v 0.041573 0.500000 0.027779
v 0.027779 0.500000 0.041573
v 0.009755 0.500000 0.049039
v -0.009755 0.500000 0.049039
v -0.027779 0.500000 0.041573
v -0.041574 0.500000 0.027778
v -0.049039 0.500000 0.009754
v -0.049039 0.500000 -0.009755
v -0.041573 0.500000 -0.027779
v -0.027778 0.500000 -0.041574
v -0.009754 0.500000 -0.049039
vt 0.5994 0.9999
vt 0.0001 0.5994
vt 0.9999 0.4006
vt 0.4006 0.0001
vt 0.5994 0.0001
vt 0.7832 0.0762
vt 0.9238 0.2168
vt 0.9999 0.5994
vt 0.9238 0.7832
vt 0.7832 0.9238
vt 0.4006 0.9999
vt 0.2168 0.9238
vt 0.0762 0.7832
vt 0.0001 0.4006
vt 0.0762 0.2168
vt 0.2168 0.0762
vn 0.0000 1.0000 0.0000
s off
f 11/1/1 7/2/1 15/3/1
f 3/4/1 2/5/1 1/6/1
f 1/6/1 16/7/1 3/4/1
f 15/3/1 14/8/1 13/9/1
f 13/9/1 12/10/1 15/3/1
f 11/1/1 10/11/1 7/2/1
f 9/12/1 8/13/1 7/2/1
f 7/2/1 6/14/1 5/15/1
f 5/15/1 4/16/1 3/4/1
f 3/4/1 16/7/1 15/3/1
f 15/3/1 12/10/1 11/1/1
f 10/11/1 9/12/1 7/2/1
f 7/2/1 5/15/1 3/4/1
f 3/4/1 15/3/1 7/2/1
g Cylinder
v 0.009755 -0.475000 -0.049039
v 0.009755 0.500000 -0.049039
v 0.027779 -0.475000 -0.041573
v 0.027779 0.500000 -0.041573
v 0.041573 -0.475000 -0.027779
v 0.041573 0.500000 -0.027779
v 0.049039 -0.475000 -0.009755
v 0.049039 0.500000 -0.009755
v 0.049039 -0.475000 0.009755
v 0.049039 0.500000 0.009755
v 0.041573 -0.475000 0.027779
v 0.041573 0.500000 0.027779
v 0.027779 -0.475000 0.041573
v 0.027779 0.500000 0.041573
v 0.009755 -0.475000 0.049039
v 0.009755 0.500000 0.049039
v -0.009755 -0.475000 0.049039
v -0.009755 0.500000 0.049039
v -0.027779 -0.475000 0.041573
v -0.027779 0.500000 0.041573
v -0.041574 -0.475000 0.027778
v -0.041574 0.500000 0.027778
v -0.049039 -0.475000 0.009754
v -0.049039 0.500000 0.009754
v -0.049039 -0.475000 -0.009755
v -0.049039 0.500000 -0.009755
v -0.041573 -0.475000 -0.027779
v -0.041573 0.500000 -0.027779
v -0.027778 -0.475000 -0.041574
v -0.027778 0.500000 -0.041574
v -0.009754 -0.475000 -0.049039
v -0.009754 0.500000 -0.049039
vt 0.6250 1.0000
vt 0.6875 0.0000
vt 0.6875 1.0000
vt 0.5625 0.0000
vt 0.6250 0.0000
vt 0.5000 1.0000
vt 0.5625 1.0000
vt 0.4375 1.0000
vt 0.5000 0.0000
vt 0.3750 1.0000
vt 0.4375 0.0000
vt 0.2500 1.0000
vt 0.3125 0.0000
vt 0.3125 1.0000
vt 0.1875 1.0000
vt 0.2500 0.0000
vt 0.1250 1.0000
vt 0.1875 0.0000
vt 0.0625 1.0000
vt 0.1250 0.0000
vt 0.0000 1.0000
vt 0.0625 0.0000
vt 0.9375 1.0000
vt 1.0000 0.0000
vt 1.0000 1.0000
vt 0.8750 1.0000
vt 0.9375 0.0000
vt 0.8125 1.0000
vt 0.8750 0.0000
vt 0.7500 1.0000
vt 0.8125 0.0000
vt 0.7500 0.0000
vt 0.3750 0.0000
vt 0.0000 0.0000
vn -0.3827 0.0000 -0.9239
vn 0.0000 0.0000 -1.0000
vn 0.3827 0.0000 -0.9239
vn 0.7071 0.0000 -0.7071
vn 0.9239 0.0000 -0.3827
vn 0.9239 0.0000 0.3827
vn 0.7071 0.0000 0.7071
vn 0.3827 0.0000 0.9239
vn -0.0000 0.0000 1.0000
vn -0.3827 0.0000 0.9239
vn -0.7071 0.0000 0.7071
vn -0.9239 0.0000 0.3827
vn -1.0000 0.0000 -0.0000
vn -0.9239 0.0000 -0.3827
vn -0.7071 0.0000 -0.7071
vn 1.0000 0.0000 -0.0000
s off
f 48/17/2 45/18/2 46/19/2
f 48/17/3 17/20/3 47/21/3
f 20/22/4 17/20/4 18/23/4
f 22/24/5 19/25/5 20/22/5
f 24/26/6 21/27/6 22/24/6
f 28/28/7 25/29/7 26/30/7
f 30/31/8 27/32/8 28/28/8
f 32/33/9 29/34/9 30/31/9
f 34/35/10 31/36/10 32/33/10
f 36/37/11 33/38/11 34/35/11
f 38/39/12 35/40/12 36/41/12
f 40/42/13 37/43/13 38/39/13
f 42/44/14 39/45/14 40/42/14
f 44/46/15 41/47/15 42/44/15
f 46/19/16 43/48/16 44/46/16
f 26/30/17 23/49/17 24/26/17
f 48/17/2 47/21/2 45/18/2
f 48/17/3 18/23/3 17/20/3
f 20/22/4 19/25/4 17/20/4
f 22/24/5 21/27/5 19/25/5
f 24/26/6 23/49/6 21/27/6
f 28/28/7 27/32/7 25/29/7
f 30/31/8 29/34/8 27/32/8
f 32/33/9 31/36/9 29/34/9
f 34/35/10 33/38/10 31/36/10
f 36/37/11 35/50/11 33/38/11
f 38/39/12 37/43/12 35/40/12
f 40/42/13 39/45/13 37/43/13
f 42/44/14 41/47/14 39/45/14
f 44/46/15 43/48/15 41/47/15
f 46/19/16 45/18/16 43/48/16
f 26/30/17 25/29/17 23/49/17
g Cone
v 0.048773 -0.522500 -0.245196
v 0.009755 -0.472500 -0.049039
v 0.138893 -0.522500 -0.207867
v 0.027779 -0.472500 -0.041573
v 0.207867 -0.522500 -0.138893
v 0.041573 -0.472500 -0.027779
v 0.245196 -0.522500 -0.048773
v 0.049039 -0.472500 -0.009755
v 0.245196 -0.522500 0.048773
v 0.049039 -0.472500 0.009755
v 0.207867 -0.522500 0.138893
v 0.041573 -0.472500 0.027779
v 0.138893 -0.522500 0.207867
v 0.027779 -0.472500 0.041573
v 0.048773 -0.522500 0.245196
v 0.009755 -0.472500 0.049039
v -0.048773 -0.522500 0.245196
v -0.009755 -0.472500 0.049039
v -0.138893 -0.522500 0.207867
v -0.027779 -0.472500 0.041573
v -0.207868 -0.522500 0.138892
v -0.041574 -0.472500 0.027778
v -0.245196 -0.522500 0.048772
v -0.049039 -0.472500 0.009754
v -0.245196 -0.522500 -0.048773
v -0.049039 -0.472500 -0.009755
v -0.207867 -0.522500 -0.138893
v -0.041573 -0.472500 -0.027779
v -0.138892 -0.522500 -0.207868
v -0.027778 -0.472500 -0.041574
v -0.048772 -0.522500 -0.245196
v -0.009754 -0.472500 -0.049039
vt 0.2057 0.2737
vt 0.0000 0.2746
vt 0.2000 0.2549
vt 0.0906 0.4442
vt 0.0285 0.3684
vt 0.2354 0.2981
vt 0.2181 0.2888
vt 0.2746 0.5000
vt 0.1771 0.4904
vt 0.2737 0.2943
vt 0.2549 0.3000
vt 0.2888 0.2819
vt 0.3684 0.4715
vt 0.2981 0.2646
vt 0.5000 0.2254
vt 0.4904 0.3229
vt 0.2943 0.2263
vt 0.3000 0.2451
vt 0.2819 0.2112
vt 0.4715 0.1316
vt 0.2646 0.2019
vt 0.4094 0.0558
vt 0.2254 0.0000
vt 0.3229 0.0096
vt 0.2263 0.2057
vt 0.2451 0.2000
vt 0.2112 0.2181
vt 0.1316 0.0285
vt 0.2019 0.2354
vt 0.0558 0.0906
vt 0.0096 0.1771
vt 0.0906 0.5558
vt 0.4442 0.5906
vt 0.0558 0.9094
vt 0.4442 0.4094
vt 0.4094 0.9442
vt 0.3229 0.9904
vt 0.2254 1.0000
vt 0.1316 0.9715
vt 0.0096 0.8229
vt 0.0000 0.7254
vt 0.0285 0.6316
vt 0.1771 0.5096
vt 0.2746 0.5000
vt 0.3684 0.5285
vt 0.4904 0.6771
vt 0.5000 0.7746
vt 0.4715 0.8684
vn -0.0945 0.9690 -0.2282
vn 0.0000 0.9690 -0.2470
vn 0.0945 0.9690 -0.2282
vn 0.1747 0.9690 -0.1747
vn 0.2282 0.9690 -0.0945
vn 0.2470 0.9690 -0.0000
vn 0.1747 0.9690 0.1747
vn 0.0945 0.9690 0.2282
vn 0.0000 0.9690 0.2470
vn -0.0945 0.9690 0.2282
vn -0.1747 0.9690 0.1747
vn -0.2282 0.9690 0.0945
vn -0.2470 0.9690 0.0000
vn -0.2282 0.9690 -0.0945
vn -0.1747 0.9690 -0.1747
vn 0.0000 1.0000 0.0000
vn 0.0000 -1.0000 0.0000
vn 0.2282 0.9690 0.0945
s off
f 80/51/18 77/52/18 78/53/18
f 80/51/19 49/54/19 79/55/19
f 52/56/20 49/54/20 50/57/20
f 52/56/21 53/58/21 51/59/21
f 56/60/22 53/58/22 54/61/22
f 58/62/23 55/63/23 56/60/23
f 60/64/24 61/65/24 59/66/24
f 64/67/25 61/65/25 62/68/25
f 66/69/26 63/70/26 64/67/26
f 68/71/27 65/72/27 66/69/27
f 68/71/28 69/73/28 67/74/28
f 72/75/29 69/73/29 70/76/29
f 74/77/30 71/78/30 72/75/30
f 76/79/31 73/80/31 74/77/31
f 78/53/32 75/81/32 76/79/32
f 68/71/33 60/64/33 76/79/33
f 63/82/34 71/83/34 55/84/34
f 58/62/35 59/66/35 57/85/35
f 80/51/18 79/55/18 77/52/18
f 80/51/19 50/57/19 49/54/19
f 52/56/20 51/59/20 49/54/20
f 52/56/21 54/61/21 53/58/21
f 56/60/22 55/63/22 53/58/22
f 58/62/23 57/85/23 55/63/23
f 60/64/24 62/68/24 61/65/24
f 64/67/25 63/70/25 61/65/25
f 66/69/26 65/72/26 63/70/26
f 68/71/27 67/74/27 65/72/27
f 68/71/28 70/76/28 69/73/28
f 72/75/29 71/78/29 69/73/29
f 74/77/30 73/80/30 71/78/30
f 76/79/31 75/81/31 73/80/31
f 78/53/32 77/52/32 75/81/32
f 52/56/33 50/57/33 80/51/33
f 80/51/33 78/53/33 76/79/33
f 76/79/33 74/77/33 72/75/33
f 72/75/33 70/76/33 68/71/33
f 68/71/33 66/69/33 60/64/33
f 64/67/33 62/68/33 60/64/33
f 60/64/33 58/62/33 56/60/33
f 56/60/33 54/61/33 60/64/33
f 52/56/33 80/51/33 76/79/33
f 76/79/33 72/75/33 68/71/33
f 66/69/33 64/67/33 60/64/33
f 60/64/33 54/61/33 52/56/33
f 52/56/33 76/79/33 60/64/33
f 79/86/34 49/87/34 55/84/34
f 51/88/34 53/89/34 55/84/34
f 55/84/34 57/90/34 59/91/34
f 59/91/34 61/92/34 63/82/34
f 63/82/34 65/93/34 71/83/34
f 67/94/34 69/95/34 71/83/34
f 71/83/34 73/96/34 79/86/34
f 75/97/34 77/98/34 79/86/34
f 49/87/34 51/88/34 55/84/34
f 55/84/34 59/91/34 63/82/34
f 65/93/34 67/94/34 71/83/34
f 73/96/34 75/97/34 79/86/34
f 79/86/34 55/84/34 71/83/34
f 58/62/35 60/64/35 59/66/35
