# Blender v2.78 (sub 0) OBJ File: 'Warnleuchte 07-01.blend'
# www.blender.org
g Sphere
v 0.040182 -0.062491 0.040969
v 0.040969 -0.058533 0.000000
v 0.040182 -0.062491 -0.040969
v 0.080363 -0.070484 0.000000
v -0.080364 -0.070484 0.000000
v -0.040182 -0.062491 0.040969
v -0.040969 -0.058534 0.000000
v -0.040182 -0.062491 -0.040969
v -0.000000 -0.070484 0.080364
v -0.000000 -0.058534 0.040969
v -0.000000 -0.054498 0.000000
v -0.000000 -0.058534 -0.040969
v -0.000000 -0.070484 -0.080363
v -0.071523 -0.071998 0.040969
v -0.079736 -0.071998 0.016645
v 0.038291 -0.071998 -0.072925
v 0.015379 -0.071998 -0.080363
v -0.000000 -0.071998 -0.083197
v -0.038291 -0.071998 -0.072924
v -0.015379 -0.071998 -0.080363
v -0.079736 -0.071998 -0.016645
v -0.071523 -0.071998 -0.040969
v -0.083197 -0.071998 0.000000
v 0.015379 -0.071998 0.080364
v -0.000000 -0.071998 0.083197
v -0.015379 -0.071998 0.080364
v 0.071523 -0.071998 0.040969
v 0.038291 -0.071998 0.072925
v -0.038291 -0.071998 0.072924
v 0.079736 -0.071998 0.016647
v 0.083197 -0.071998 0.000000
v 0.079736 -0.071998 -0.016647
v 0.071523 -0.071998 -0.040969
v 0.000000 -0.310000 -0.084000
v 0.000000 -0.072000 -0.084000
v 0.016388 -0.310000 -0.082386
v 0.016388 -0.072000 -0.082386
v 0.032145 -0.310000 -0.077606
v 0.032145 -0.072000 -0.077606
v 0.046668 -0.310000 -0.069843
v 0.046668 -0.072000 -0.069843
v 0.059397 -0.310000 -0.059397
v 0.059397 -0.072000 -0.059397
v 0.069843 -0.310000 -0.046668
v 0.069843 -0.072000 -0.046668
v 0.077606 -0.310000 -0.032145
v 0.077606 -0.072000 -0.032145
v 0.082386 -0.310000 -0.016388
v 0.082386 -0.072000 -0.016388
v 0.084000 -0.310000 -0.000000
v 0.084000 -0.072000 -0.000000
v 0.082386 -0.310000 0.016388
v 0.082386 -0.072000 0.016388
v 0.077606 -0.310000 0.032145
v 0.077606 -0.072000 0.032145
v 0.069843 -0.310000 0.046668
v 0.069843 -0.072000 0.046668
v 0.059397 -0.310000 0.059397
v 0.059397 -0.072000 0.059397
v 0.046668 -0.310000 0.069843
v 0.046668 -0.072000 0.069843
v 0.032145 -0.310000 0.077606
v 0.032145 -0.072000 0.077606
v 0.016388 -0.310000 0.082386
v 0.016388 -0.072000 0.082386
v -0.000000 -0.310000 0.084000
v -0.000000 -0.072000 0.084000
v -0.016388 -0.310000 0.082386
v -0.016388 -0.072000 0.082386
v -0.032145 -0.310000 0.077606
v -0.032145 -0.072000 0.077606
v -0.046668 -0.310000 0.069843
v -0.046668 -0.072000 0.069843
v -0.059397 -0.310000 0.059397
v -0.059397 -0.072000 0.059397
v -0.069843 -0.310000 0.046668
v -0.069843 -0.072000 0.046668
v -0.077606 -0.310000 0.032145
v -0.077606 -0.072000 0.032145
v -0.082386 -0.310000 0.016388
v -0.082386 -0.072000 0.016388
v -0.084000 -0.310000 -0.000000
v -0.084000 -0.072000 -0.000000
v -0.082386 -0.310000 -0.016388
v -0.082386 -0.072000 -0.016388
v -0.077606 -0.310000 -0.032145
v -0.077606 -0.072000 -0.032145
v -0.069843 -0.310000 -0.046668
v -0.069843 -0.072000 -0.046668
v -0.059397 -0.310000 -0.059397
v -0.059397 -0.072000 -0.059397
v -0.046668 -0.310000 -0.069844
v -0.046668 -0.072000 -0.069844
v -0.032145 -0.310000 -0.077606
v -0.032145 -0.072000 -0.077606
v -0.016387 -0.310000 -0.082386
v -0.016387 -0.072000 -0.082386
v 0.000000 -0.324000 -0.070000
v 0.000000 -0.310000 -0.070000
v 0.013656 -0.324000 -0.068655
v 0.013656 -0.310000 -0.068655
v 0.026788 -0.324000 -0.064672
v 0.026788 -0.310000 -0.064672
v 0.038890 -0.324000 -0.058203
v 0.038890 -0.310000 -0.058203
v 0.049497 -0.324000 -0.049497
v 0.049497 -0.310000 -0.049497
v 0.058203 -0.324000 -0.038890
v 0.058203 -0.310000 -0.038890
v 0.064672 -0.324000 -0.026788
v 0.064672 -0.310000 -0.026788
v 0.068655 -0.324000 -0.013656
v 0.068655 -0.310000 -0.013656
v 0.070000 -0.324000 -0.000000
v 0.070000 -0.310000 -0.000000
v 0.068655 -0.324000 0.013656
v 0.068655 -0.310000 0.013656
v 0.064672 -0.324000 0.026788
v 0.064672 -0.310000 0.026788
v 0.058203 -0.324000 0.038890
v 0.058203 -0.310000 0.038890
v 0.049497 -0.324000 0.049497
v 0.049497 -0.310000 0.049497
v 0.038890 -0.324000 0.058203
v 0.038890 -0.310000 0.058203
v 0.026788 -0.324000 0.064672
v 0.026788 -0.310000 0.064672
v 0.013656 -0.324000 0.068655
v 0.013656 -0.310000 0.068655
v -0.000000 -0.324000 0.070000
v -0.000000 -0.310000 0.070000
v -0.013656 -0.324000 0.068655
v -0.013656 -0.310000 0.068655
v -0.026788 -0.324000 0.064672
v -0.026788 -0.310000 0.064672
v -0.038890 -0.324000 0.058203
v -0.038890 -0.310000 0.058203
v -0.049498 -0.324000 0.049497
v -0.049498 -0.310000 0.049497
v -0.058203 -0.324000 0.038890
v -0.058203 -0.310000 0.038890
v -0.064672 -0.324000 0.026788
v -0.064672 -0.310000 0.026788
v -0.068655 -0.324000 0.013656
v -0.068655 -0.310000 0.013656
v -0.070000 -0.324000 -0.000000
v -0.070000 -0.310000 -0.000000
v -0.068655 -0.324000 -0.013656
v -0.068655 -0.310000 -0.013656
v -0.064672 -0.324000 -0.026788
v -0.064672 -0.310000 -0.026788
v -0.058203 -0.324000 -0.038890
v -0.058203 -0.310000 -0.038890
v -0.049497 -0.324000 -0.049498
v -0.049497 -0.310000 -0.049498
v -0.038890 -0.324000 -0.058203
v -0.038890 -0.310000 -0.058203
v -0.026788 -0.324000 -0.064672
v -0.026788 -0.310000 -0.064672
v -0.013656 -0.324000 -0.068655
v -0.013656 -0.310000 -0.068655
vt 0.7443 0.7538
vt 0.7879 0.7166
vt 0.8260 0.7369
vt 0.6374 0.9565
vt 0.6338 0.9600
vt 0.6183 0.9367
vt 0.5995 0.8978
vt 0.6384 0.8557
vt 0.7413 0.8567
vt 0.6904 0.8037
vt 0.7942 0.8058
vt 0.6637 0.7329
vt 0.5995 0.8152
vt 0.6207 0.7743
vt 0.6414 0.7528
vt 0.6379 0.7492
vt 0.8188 0.9804
vt 0.7383 0.9595
vt 0.7922 0.9096
vt 0.6565 0.9764
vt 0.6883 0.9076
vt 0.8441 0.8577
vt 0.6183 0.4900
vt 0.6565 0.4503
vt 0.8188 0.4463
vt 0.8447 0.9642
vt 0.8411 0.9605
vt 0.8488 0.7533
vt 0.8451 0.7568
vt 0.8642 0.7767
vt 0.8619 0.9390
vt 0.7772 1.0000
vt 0.6946 0.9968
vt 0.8831 0.8155
vt 0.8831 0.8982
vt 0.7053 0.7133
vt 0.4202 0.0000
vt 0.4448 0.4267
vt 0.4202 0.4267
vt 0.4448 0.0000
vt 0.4656 0.4267
vt 0.0000 0.0000
vt 0.0209 0.4267
vt 0.0000 0.4267
vt 0.0209 0.0000
vt 0.0454 0.4267
vt 0.0727 0.0000
vt 0.0727 0.4267
vt 0.1016 0.0000
vt 0.1016 0.4267
vt 0.1312 0.4267
vt 0.1312 0.0000
vt 0.1601 0.4267
vt 0.1601 0.0000
vt 0.1874 0.4267
vt 0.1874 0.0000
vt 0.2119 0.4267
vt 0.2119 0.0000
vt 0.2328 0.4267
vt 0.8478 0.4267
vt 0.8232 0.0000
vt 0.8478 0.0000
vt 0.8232 0.4267
vt 0.7959 0.0000
vt 0.7959 0.4267
vt 0.7670 0.0000
vt 0.7670 0.4267
vt 0.7375 0.0000
vt 0.7375 0.4267
vt 0.7085 0.0000
vt 0.7085 0.4267
vt 0.6812 0.0000
vt 0.6812 0.4267
vt 0.6567 0.0000
vt 0.6567 0.4267
vt 0.6322 0.0000
vt 0.6322 0.4267
vt 0.6049 0.0000
vt 0.6049 0.4267
vt 0.5759 0.0000
vt 0.5759 0.4267
vt 0.5464 0.0000
vt 0.5464 0.4267
vt 0.5174 0.0000
vt 0.4902 0.4267
vt 0.4902 0.0000
vt 0.4656 0.0000
vt 0.2328 0.0000
vt 0.2537 0.4267
vt 0.2328 0.4267
vt 0.2537 0.0000
vt 0.2782 0.4267
vt 0.2782 0.0000
vt 0.3055 0.4267
vt 0.3055 0.0000
vt 0.3345 0.4267
vt 0.3345 0.0000
vt 0.3640 0.4267
vt 0.0543 0.6929
vt 0.1351 0.4267
vt 0.2454 0.4601
vt 0.3640 0.0000
vt 0.3929 0.4267
vt 0.3929 0.0000
vt 0.3168 0.6475
vt 0.3786 0.4437
vt 0.5824 0.5055
vt 0.9284 0.6021
vt 0.9535 0.5817
vt 0.9535 0.6021
vt 0.9284 0.5817
vt 0.9535 0.5643
vt 0.9535 0.7583
vt 0.9284 0.7757
vt 0.9284 0.7583
vt 0.9535 0.7757
vt 0.9284 0.7961
vt 0.9535 0.7961
vt 0.9284 0.8189
vt 0.9535 0.8189
vt 0.9284 0.8430
vt 0.9535 0.8430
vt 0.9284 0.8676
vt 0.9535 0.8676
vt 0.9284 0.8917
vt 0.9535 0.8917
vt 0.9284 0.9144
vt 0.9535 0.9144
vt 0.9284 0.9349
vt 0.9535 0.9349
vt 0.9284 0.9523
vt 0.5246 0.7264
vt 0.4995 0.7469
vt 0.4995 0.7264
vt 0.5246 0.7469
vt 0.4995 0.7696
vt 0.5246 0.7696
vt 0.4995 0.7937
vt 0.5246 0.7937
vt 0.4995 0.8183
vt 0.5246 0.8183
vt 0.4995 0.8424
vt 0.5246 0.8424
vt 0.4995 0.8652
vt 0.5246 0.8652
vt 0.4995 0.8856
vt 0.5497 0.7264
vt 0.5246 0.7469
vt 0.5246 0.7264
vt 0.5497 0.7469
vt 0.5246 0.7696
vt 0.5497 0.7696
vt 0.5246 0.7937
vt 0.5497 0.7937
vt 0.5246 0.8183
vt 0.5497 0.8424
vt 0.5246 0.8424
vt 0.5246 0.8652
vt 0.5497 0.8652
vt 0.5246 0.8856
vt 0.9284 0.7583
vt 0.9535 0.7409
vt 0.9535 0.7583
vt 0.9284 0.7409
vt 0.9535 0.7204
vt 0.9284 0.7204
vt 0.9535 0.6977
vt 0.9284 0.6977
vt 0.9535 0.6736
vt 0.9284 0.6736
vt 0.9535 0.6490
vt 0.4111 0.9714
vt 0.2546 0.8877
vt 0.3382 0.7312
vt 0.9284 0.6490
vt 0.9535 0.6248
vt 0.9284 0.6248
vt 0.0142 0.9104
vt 0.0657 0.7406
vt 0.1840 0.9620
vt 0.8447 0.4625
vt 0.8619 0.4876
vt 0.8831 0.5285
vt 0.8831 0.6111
vt 0.8642 0.6500
vt 0.8488 0.6734
vt 0.8260 0.6897
vt 0.7879 0.7101
vt 0.6637 0.6937
vt 0.6379 0.6775
vt 0.6207 0.6524
vt 0.5995 0.6115
vt 0.5995 0.5289
vt 0.6338 0.4666
vt 0.6946 0.4299
vt 0.7772 0.4267
vt 0.4656 0.0000
vt 0.0454 0.0000
vt 0.2328 0.0000
vt 0.5174 0.4267
vt 0.4656 0.4267
vt 0.2663 0.4810
vt 0.2827 0.5055
vt 0.2940 0.5328
vt 0.2997 0.5618
vt 0.2997 0.5913
vt 0.2940 0.6202
vt 0.2827 0.6475
vt 0.2663 0.6721
vt 0.2454 0.6929
vt 0.2209 0.7093
vt 0.1936 0.7206
vt 0.1646 0.7264
vt 0.1351 0.7264
vt 0.1062 0.7206
vt 0.0789 0.7093
vt 0.0335 0.6721
vt 0.0000 0.5913
vt 0.0171 0.6475
vt 0.0058 0.6202
vt 0.0000 0.5618
vt 0.0335 0.4810
vt 0.0058 0.5328
vt 0.0171 0.5055
vt 0.0543 0.4601
vt 0.0789 0.4437
vt 0.1062 0.4324
vt 0.1646 0.4267
vt 0.1936 0.4324
vt 0.2209 0.4437
vt 0.5937 0.5328
vt 0.5995 0.5618
vt 0.5995 0.5913
vt 0.5937 0.6202
vt 0.5824 0.6475
vt 0.5660 0.6721
vt 0.5451 0.6929
vt 0.5206 0.7093
vt 0.4933 0.7206
vt 0.4644 0.7264
vt 0.4348 0.7264
vt 0.4059 0.7206
vt 0.3786 0.7093
vt 0.3541 0.6929
vt 0.3332 0.6721
vt 0.3055 0.6202
vt 0.2997 0.5913
vt 0.2997 0.5618
vt 0.3055 0.5328
vt 0.3168 0.5055
vt 0.3332 0.4810
vt 0.3541 0.4601
vt 0.4059 0.4324
vt 0.4348 0.4267
vt 0.4644 0.4267
vt 0.4933 0.4324
vt 0.5206 0.4437
vt 0.5451 0.4601
vt 0.5660 0.4810
vt 0.9284 0.5643
vt 0.9535 0.9523
vt 0.5246 0.8856
vt 0.5497 0.8183
vt 0.5497 0.8856
vt 0.3624 0.7264
vt 0.3870 0.7264
vt 0.4111 0.7312
vt 0.4338 0.7406
vt 0.4543 0.7543
vt 0.4717 0.7717
vt 0.4853 0.7921
vt 0.4947 0.8149
vt 0.4995 0.8390
vt 0.4995 0.8636
vt 0.4947 0.8877
vt 0.4853 0.9104
vt 0.4717 0.9309
vt 0.4543 0.9483
vt 0.4338 0.9620
vt 0.3870 0.9762
vt 0.3624 0.9762
vt 0.3382 0.9714
vt 0.3155 0.9620
vt 0.2951 0.9483
vt 0.2777 0.9309
vt 0.2640 0.9104
vt 0.2498 0.8636
vt 0.2498 0.8390
vt 0.2546 0.8149
vt 0.2640 0.7921
vt 0.2777 0.7717
vt 0.2951 0.7543
vt 0.3155 0.7406
vt 0.2356 0.7921
vt 0.2450 0.8149
vt 0.2450 0.8877
vt 0.2498 0.8390
vt 0.2498 0.8636
vt 0.2356 0.9104
vt 0.2219 0.9309
vt 0.2045 0.9483
vt 0.1613 0.9714
vt 0.1372 0.9762
vt 0.1126 0.9762
vt 0.0885 0.9714
vt 0.0657 0.9620
vt 0.0453 0.9483
vt 0.0279 0.9309
vt 0.0048 0.8877
vt 0.0000 0.8636
vt 0.0000 0.8390
vt 0.0048 0.8149
vt 0.0142 0.7921
vt 0.0279 0.7717
vt 0.0453 0.7543
vt 0.0885 0.7312
vt 0.1126 0.7264
vt 0.1372 0.7264
vt 0.1613 0.7312
vt 0.1840 0.7406
vt 0.2045 0.7543
vt 0.2219 0.7717
vn 0.0938 0.9527 -0.2890
vn 0.0865 0.8786 0.4696
vn 0.0938 0.9527 0.2890
vn 0.0975 0.9904 0.0976
vn 0.0975 0.9904 -0.0976
vn 0.2889 0.9524 -0.0975
vn 0.2779 0.9161 0.2890
vn 0.2889 0.9524 0.0976
vn 0.4692 0.8777 0.0976
vn -0.2889 0.9524 0.0976
vn -0.0938 0.9527 0.2890
vn -0.0975 0.9904 0.0976
vn -0.0975 0.9904 -0.0976
vn 0.0000 -1.0000 0.0000
vn 0.4692 0.8777 -0.0975
vn -0.4691 0.8777 0.0976
vn 0.0865 0.8786 -0.4696
vn -0.0938 0.9527 -0.2890
vn -0.4691 0.8777 -0.0975
vn -0.0865 0.8786 -0.4696
vn -0.2779 0.9161 0.2890
vn -0.2779 0.9161 -0.2890
vn -0.2889 0.9524 -0.0976
vn 0.2779 0.9161 -0.2890
vn -0.0865 0.8786 0.4696
vn 0.0980 0.0000 -0.9952
vn 0.2903 -0.0000 -0.9569
vn 0.4714 -0.0000 -0.8819
vn 0.6344 -0.0000 -0.7730
vn 0.7730 -0.0000 -0.6344
vn 0.8819 0.0000 -0.4714
vn 0.9569 0.0000 -0.2903
vn 0.9952 0.0000 -0.0980
vn 0.9952 0.0000 0.0980
vn 0.9569 0.0000 0.2903
vn 0.8819 0.0000 0.4714
vn 0.7730 0.0000 0.6344
vn 0.6344 0.0000 0.7730
vn 0.4714 0.0000 0.8819
vn 0.2903 0.0000 0.9569
vn 0.0980 0.0000 0.9952
vn -0.0980 0.0000 0.9952
vn -0.2903 0.0000 0.9569
vn -0.4714 0.0000 0.8819
vn -0.6344 0.0000 0.7730
vn -0.7730 0.0000 0.6344
vn -0.8819 0.0000 0.4714
vn -0.9569 0.0000 0.2903
vn -0.9952 -0.0000 0.0980
vn -0.9952 0.0000 -0.0980
vn -0.9569 0.0000 -0.2903
vn -0.8819 0.0000 -0.4714
vn -0.7730 0.0000 -0.6344
vn -0.6344 0.0000 -0.7730
vn -0.4714 -0.0000 -0.8819
vn 0.0000 1.0000 0.0000
vn -0.2903 0.0000 -0.9569
vn -0.0980 -0.0000 -0.9952
vn 0.0975 0.9904 -0.0975
vn 0.2889 0.9524 -0.0976
vn 0.2889 0.9524 0.0975
vn 0.0000 -1.0000 0.0001
s off
f 3/1/1 16/2/1 17/3/1
f 9/4/2 25/5/2 24/6/2
f 24/6/3 28/7/3 1/8/3
f 11/9/4 1/8/4 2/10/4
f 11/9/5 3/1/5 12/11/5
f 2/10/6 32/12/6 3/1/6
f 1/8/7 28/7/7 27/13/7
f 1/8/8 30/14/8 2/10/8
f 4/15/9 30/14/9 31/16/9
f 15/17/10 6/18/10 7/19/10
f 26/20/11 9/4/11 10/21/11
f 6/18/12 11/9/12 7/19/12
f 7/19/13 12/11/13 8/22/13
f 24/23/14 26/24/14 15/25/14
f 31/16/15 32/12/15 4/15/15
f 23/26/16 15/17/16 5/27/16
f 17/3/17 18/28/17 13/29/17
f 8/22/18 12/11/18 20/30/18
f 21/31/19 23/26/19 5/27/19
f 18/28/20 20/30/20 13/29/20
f 14/32/21 29/33/21 6/18/21
f 19/34/22 22/35/22 8/22/22
f 21/31/23 7/19/23 8/22/23
f 33/36/24 16/2/24 3/1/24
f 26/20/25 25/5/25 9/4/25
f 35/37/26 36/38/26 34/39/26
f 37/40/27 38/41/27 36/38/27
f 39/42/28 40/43/28 38/44/28
f 41/45/29 42/46/29 40/43/29
f 42/46/30 45/47/30 44/48/30
f 44/48/31 47/49/31 46/50/31
f 47/49/32 48/51/32 46/50/32
f 49/52/33 50/53/33 48/51/33
f 51/54/34 52/55/34 50/53/34
f 53/56/35 54/57/35 52/55/35
f 55/58/36 56/59/36 54/57/36
f 57/60/37 58/61/37 56/62/37
f 59/63/38 60/64/38 58/61/38
f 61/65/39 62/66/39 60/64/39
f 63/67/40 64/68/40 62/66/40
f 65/69/41 66/70/41 64/68/41
f 67/71/42 68/72/42 66/70/42
f 69/73/43 70/74/43 68/72/43
f 71/75/44 72/76/44 70/74/44
f 73/77/45 74/78/45 72/76/45
f 75/79/46 76/80/46 74/78/46
f 77/81/47 78/82/47 76/80/47
f 79/83/48 80/84/48 78/82/48
f 80/84/49 83/85/49 82/86/49
f 83/85/50 84/87/50 82/86/50
f 85/88/51 86/89/51 84/90/51
f 87/91/52 88/92/52 86/89/52
f 89/93/53 90/94/53 88/92/53
f 91/95/54 92/96/54 90/94/54
f 93/97/55 94/98/55 92/96/55
f 71/99/56 47/100/56 39/101/56
f 95/102/57 96/103/57 94/98/57
f 97/104/58 34/39/58 96/103/58
f 64/105/14 80/106/14 96/107/14
f 99/108/26 100/109/26 98/110/26
f 101/111/27 102/112/27 100/109/27
f 103/113/28 104/114/28 102/115/28
f 105/116/29 106/117/29 104/114/29
f 107/118/30 108/119/30 106/117/30
f 109/120/31 110/121/31 108/119/31
f 111/122/32 112/123/32 110/121/32
f 113/124/33 114/125/33 112/123/33
f 115/126/34 116/127/34 114/125/34
f 117/128/35 118/129/35 116/127/35
f 119/130/36 120/131/36 118/129/36
f 121/132/37 122/133/37 120/134/37
f 123/135/38 124/136/38 122/133/38
f 125/137/39 126/138/39 124/136/39
f 127/139/40 128/140/40 126/138/40
f 129/141/41 130/142/41 128/140/41
f 131/143/42 132/144/42 130/142/42
f 133/145/43 134/146/43 132/144/43
f 135/147/44 136/148/44 134/149/44
f 137/150/45 138/151/45 136/148/45
f 139/152/46 140/153/46 138/151/46
f 141/154/47 142/155/47 140/153/47
f 142/155/48 145/156/48 144/157/48
f 145/156/49 146/158/49 144/157/49
f 147/159/50 148/160/50 146/158/50
f 149/161/51 150/162/51 148/163/51
f 151/164/52 152/165/52 150/162/52
f 153/166/53 154/167/53 152/165/53
f 155/168/54 156/169/54 154/167/54
f 157/170/55 158/171/55 156/169/55
f 135/172/56 119/173/56 103/174/56
f 159/175/57 160/176/57 158/171/57
f 161/177/58 98/110/58 160/176/58
f 128/178/14 144/179/14 112/180/14
f 17/3/1 13/29/1 12/11/1
f 12/11/1 3/1/1 17/3/1
f 1/8/3 10/21/3 24/6/3
f 9/4/3 24/6/3 10/21/3
f 11/9/4 10/21/4 1/8/4
f 11/9/59 2/10/59 3/1/59
f 33/36/6 3/1/6 32/12/6
f 2/10/60 4/15/60 32/12/60
f 4/15/8 2/10/8 30/14/8
f 1/8/61 27/13/61 30/14/61
f 7/19/10 5/27/10 15/17/10
f 15/17/10 14/32/10 6/18/10
f 10/21/11 6/18/11 26/20/11
f 29/33/11 26/20/11 6/18/11
f 6/18/12 10/21/12 11/9/12
f 7/19/13 11/9/13 12/11/13
f 15/25/14 23/181/14 21/182/14
f 21/182/14 22/183/14 19/184/14
f 19/184/14 20/185/14 21/182/14
f 18/186/14 17/187/14 20/185/14
f 16/188/14 33/36/14 32/189/14
f 32/189/14 31/190/14 30/191/14
f 30/191/14 27/192/14 28/193/14
f 28/193/14 24/23/14 30/191/14
f 25/194/14 26/24/14 24/23/14
f 29/195/14 14/196/14 15/25/14
f 15/25/14 21/182/14 32/189/14
f 20/185/14 17/187/14 21/182/14
f 16/188/14 32/189/14 17/187/14
f 30/191/14 24/23/14 15/25/14
f 26/24/14 29/195/14 15/25/14
f 15/25/14 32/189/14 30/191/14
f 32/189/14 21/182/14 17/187/14
f 13/29/18 20/30/18 12/11/18
f 19/34/18 8/22/18 20/30/18
f 8/22/23 22/35/23 21/31/23
f 21/31/23 5/27/23 7/19/23
f 35/37/26 37/40/26 36/38/26
f 37/40/27 39/197/27 38/41/27
f 39/42/28 41/45/28 40/43/28
f 41/45/29 43/198/29 42/46/29
f 42/46/30 43/198/30 45/47/30
f 44/48/31 45/47/31 47/49/31
f 47/49/32 49/52/32 48/51/32
f 49/52/33 51/54/33 50/53/33
f 51/54/34 53/56/34 52/55/34
f 53/56/35 55/58/35 54/57/35
f 55/58/36 57/199/36 56/59/36
f 57/60/37 59/63/37 58/61/37
f 59/63/38 61/65/38 60/64/38
f 61/65/39 63/67/39 62/66/39
f 63/67/40 65/69/40 64/68/40
f 65/69/41 67/71/41 66/70/41
f 67/71/42 69/73/42 68/72/42
f 69/73/43 71/75/43 70/74/43
f 71/75/44 73/77/44 72/76/44
f 73/77/45 75/79/45 74/78/45
f 75/79/46 77/81/46 76/80/46
f 77/81/47 79/83/47 78/82/47
f 79/83/48 81/200/48 80/84/48
f 80/84/49 81/200/49 83/85/49
f 83/85/50 85/201/50 84/87/50
f 85/88/51 87/91/51 86/89/51
f 87/91/52 89/93/52 88/92/52
f 89/93/53 91/95/53 90/94/53
f 91/95/54 93/97/54 92/96/54
f 93/97/55 95/102/55 94/98/55
f 39/101/56 37/202/56 35/203/56
f 35/203/56 97/204/56 95/205/56
f 95/205/56 93/206/56 91/207/56
f 91/207/56 89/208/56 87/209/56
f 87/209/56 85/210/56 83/211/56
f 83/211/56 81/212/56 87/209/56
f 79/213/56 77/214/56 71/99/56
f 75/215/56 73/216/56 71/99/56
f 71/99/56 69/217/56 63/218/56
f 67/219/56 65/220/56 63/218/56
f 63/218/56 61/221/56 55/222/56
f 59/223/56 57/224/56 55/222/56
f 55/222/56 53/225/56 51/226/56
f 51/226/56 49/227/56 55/222/56
f 47/100/56 45/228/56 43/229/56
f 43/229/56 41/230/56 39/101/56
f 39/101/56 35/203/56 95/205/56
f 95/205/56 91/207/56 87/209/56
f 87/209/56 81/212/56 79/213/56
f 77/214/56 75/215/56 71/99/56
f 69/217/56 67/219/56 63/218/56
f 61/221/56 59/223/56 55/222/56
f 55/222/56 49/227/56 47/100/56
f 47/100/56 43/229/56 39/101/56
f 39/101/56 95/205/56 71/99/56
f 87/209/56 79/213/56 71/99/56
f 71/99/56 63/218/56 55/222/56
f 55/222/56 47/100/56 71/99/56
f 95/205/56 87/209/56 71/99/56
f 95/102/57 97/104/57 96/103/57
f 97/104/58 35/37/58 34/39/58
f 96/107/14 34/231/14 36/232/14
f 36/232/14 38/233/14 40/234/14
f 40/234/14 42/235/14 44/236/14
f 44/236/14 46/237/14 40/234/14
f 48/238/14 50/239/14 52/240/14
f 52/240/14 54/241/14 48/238/14
f 56/242/14 58/243/14 60/244/14
f 60/244/14 62/245/14 64/105/14
f 64/105/14 66/246/14 68/247/14
f 68/247/14 70/248/14 64/105/14
f 72/249/14 74/250/14 80/106/14
f 76/251/14 78/252/14 80/106/14
f 80/106/14 82/253/14 84/254/14
f 84/254/14 86/255/14 80/106/14
f 88/256/14 90/257/14 92/258/14
f 92/258/14 94/259/14 96/107/14
f 96/107/14 36/232/14 40/234/14
f 40/234/14 46/237/14 48/238/14
f 48/238/14 54/241/14 56/242/14
f 56/242/14 60/244/14 64/105/14
f 64/105/14 70/248/14 72/249/14
f 74/250/14 76/251/14 80/106/14
f 80/106/14 86/255/14 88/256/14
f 88/256/14 92/258/14 80/106/14
f 96/107/14 40/234/14 64/105/14
f 48/238/14 56/242/14 64/105/14
f 64/105/14 72/249/14 80/106/14
f 80/106/14 92/258/14 96/107/14
f 40/234/14 48/238/14 64/105/14
f 99/108/26 101/111/26 100/109/26
f 101/111/27 103/260/27 102/112/27
f 103/113/28 105/116/28 104/114/28
f 105/116/29 107/118/29 106/117/29
f 107/118/30 109/120/30 108/119/30
f 109/120/31 111/122/31 110/121/31
f 111/122/32 113/124/32 112/123/32
f 113/124/33 115/126/33 114/125/33
f 115/126/34 117/128/34 116/127/34
f 117/128/35 119/130/35 118/129/35
f 119/130/36 121/261/36 120/131/36
f 121/132/37 123/135/37 122/133/37
f 123/135/38 125/137/38 124/136/38
f 125/137/39 127/139/39 126/138/39
f 127/139/40 129/141/40 128/140/40
f 129/141/41 131/143/41 130/142/41
f 131/143/42 133/145/42 132/144/42
f 133/145/43 135/262/43 134/146/43
f 135/147/44 137/150/44 136/148/44
f 137/150/45 139/152/45 138/151/45
f 139/152/46 141/154/46 140/153/46
f 141/154/47 143/263/47 142/155/47
f 142/155/48 143/263/48 145/156/48
f 145/156/49 147/159/49 146/158/49
f 147/159/50 149/264/50 148/160/50
f 149/161/51 151/164/51 150/162/51
f 151/164/52 153/166/52 152/165/52
f 153/166/53 155/168/53 154/167/53
f 155/168/54 157/170/54 156/169/54
f 157/170/55 159/175/55 158/171/55
f 103/174/56 101/265/56 99/266/56
f 99/266/56 161/267/56 159/268/56
f 159/268/56 157/269/56 155/270/56
f 155/270/56 153/271/56 151/272/56
f 151/272/56 149/273/56 147/274/56
f 147/274/56 145/275/56 151/272/56
f 143/276/56 141/277/56 135/172/56
f 139/278/56 137/279/56 135/172/56
f 135/172/56 133/280/56 131/281/56
f 131/281/56 129/282/56 135/172/56
f 127/283/56 125/284/56 123/285/56
f 123/285/56 121/286/56 119/173/56
f 119/173/56 117/287/56 115/288/56
f 115/288/56 113/289/56 119/173/56
f 111/290/56 109/291/56 107/292/56
f 107/292/56 105/293/56 111/290/56
f 103/174/56 99/266/56 151/272/56
f 159/268/56 155/270/56 151/272/56
f 151/272/56 145/275/56 143/276/56
f 141/277/56 139/278/56 135/172/56
f 135/172/56 129/282/56 127/283/56
f 127/283/56 123/285/56 135/172/56
f 119/173/56 113/289/56 111/290/56
f 111/290/56 105/293/56 103/174/56
f 99/266/56 159/268/56 151/272/56
f 151/272/56 143/276/56 135/172/56
f 135/172/56 123/285/56 119/173/56
f 119/173/56 111/290/56 103/174/56
f 103/174/56 151/272/56 135/172/56
f 159/175/57 161/177/57 160/176/57
f 161/177/58 99/108/58 98/110/58
f 160/294/14 98/295/14 104/296/14
f 100/297/14 102/298/14 104/296/14
f 104/296/14 106/299/14 108/300/14
f 108/300/14 110/301/14 104/296/14
f 112/180/14 114/302/14 116/303/14
f 116/303/14 118/304/14 112/180/14
f 120/305/14 122/306/14 128/178/14
f 124/307/14 126/308/14 128/178/14
f 128/178/14 130/309/14 132/310/14
f 132/310/62 134/311/62 136/312/62
f 136/312/14 138/313/14 140/314/14
f 140/314/14 142/315/14 144/179/14
f 144/179/14 146/316/14 148/317/14
f 148/317/14 150/318/14 144/179/14
f 152/319/14 154/320/14 156/321/14
f 156/321/14 158/322/14 152/319/14
f 98/295/14 100/297/14 104/296/14
f 104/296/14 110/301/14 112/180/14
f 112/180/14 118/304/14 120/305/14
f 122/306/14 124/307/14 128/178/14
f 128/178/14 132/310/14 136/312/14
f 136/312/14 140/314/14 128/178/14
f 144/179/14 150/318/14 152/319/14
f 152/319/14 158/322/14 160/294/14
f 160/294/14 104/296/14 112/180/14
f 112/180/14 120/305/14 128/178/14
f 128/178/14 140/314/14 144/179/14
f 144/179/14 152/319/14 160/294/14
f 160/294/14 112/180/14 144/179/14
g Cube
v 0.070000 -0.499000 -0.070000
v 0.070000 -0.499000 0.070000
v -0.070000 -0.499000 0.070000
v -0.070000 -0.499000 -0.070000
v 0.070000 -0.324000 -0.070000
v 0.070000 -0.324000 0.070000
v -0.070000 -0.324000 0.070000
v -0.070000 -0.324000 -0.070000
vt 0.0000 0.6667
vt 0.3333 1.0000
vt 0.0000 1.0000
vt 0.6667 0.3333
vt 0.3333 0.6667
vt 0.3333 0.3333
vt 0.3333 0.3333
vt 0.6667 0.0000
vt 0.6667 0.3333
vt 0.0000 0.0000
vt 0.3333 0.3333
vt 0.0000 0.3333
vt 1.0000 0.3333
vt 0.6667 0.0000
vt 1.0000 0.0000
vt 0.3333 0.3333
vt 0.0000 0.6667
vt 0.0000 0.3333
vt 0.3333 0.6667
vt 0.6667 0.6667
vt 0.3333 0.0000
vt 0.3333 0.0000
vt 0.6667 0.3333
vt 0.3333 0.6667
vn 0.0000 -1.0000 -0.0000
vn 0.0000 1.0000 0.0000
vn 1.0000 -0.0000 0.0000
vn -0.0000 -0.0000 1.0000
vn -1.0000 -0.0000 -0.0000
vn 0.0000 0.0000 -1.0000
s off
f 162/323/63 164/324/63 165/325/63
f 166/326/64 168/327/64 167/328/64
f 166/329/65 163/330/65 162/331/65
f 167/332/66 164/333/66 163/334/66
f 164/335/67 169/336/67 165/337/67
f 162/338/68 169/339/68 166/340/68
f 162/323/63 163/341/63 164/324/63
f 166/326/64 169/342/64 168/327/64
f 166/329/65 167/343/65 163/330/65
f 167/332/66 168/344/66 164/333/66
f 164/335/67 168/345/67 169/336/67
f 162/338/68 165/346/68 169/339/68
