# Blender v2.78 (sub 0) OBJ File: 'Ampel 05 - L2H 01.blend'
# www.blender.org
g Lense_2_Sphere.001
v -0.147447 0.094368 0.589584
v -0.144385 0.065001 0.567192
v -0.142499 0.033137 0.553403
v -0.141863 0.000000 0.548747
v -0.142499 -0.033137 0.553403
v -0.144385 -0.065001 0.567192
v -0.147447 -0.094368 0.589584
v -0.114947 0.065001 0.580181
v -0.111248 0.033137 0.567192
v -0.109999 0.000000 0.562806
v -0.111248 -0.033137 0.567192
v -0.114947 -0.065001 0.580181
v -0.082446 0.033137 0.589584
v -0.080633 0.000000 0.585637
v -0.082446 -0.033137 0.589584
v -0.267554 0.033137 0.589584
v -0.269367 0.000000 0.585637
v -0.267554 -0.033137 0.589584
v -0.235054 0.065001 0.580181
v -0.238752 0.033137 0.567192
v -0.240001 0.000000 0.562806
v -0.238752 -0.033137 0.567192
v -0.235054 -0.065001 0.580181
v -0.202553 0.094368 0.589584
v -0.205615 0.065001 0.567192
v -0.207501 0.033137 0.553403
v -0.208137 0.000000 0.548747
v -0.207501 -0.033137 0.553403
v -0.205615 -0.065001 0.567192
v -0.202553 -0.094368 0.589584
v -0.175000 0.094368 0.585637
v -0.175000 0.065001 0.562806
v -0.175000 0.033137 0.548747
v -0.175000 0.000000 0.544000
v -0.175000 -0.033137 0.548747
v -0.175000 -0.065001 0.562806
v -0.175000 -0.094368 0.585637
v -0.089454 0.065001 0.600000
v -0.087231 0.061530 0.600000
v -0.073720 0.033137 0.600000
v -0.068600 0.000000 0.600000
v -0.087231 -0.061530 0.600000
v -0.089454 -0.065001 0.600000
v -0.120591 -0.092594 0.600000
v -0.073720 -0.033137 0.600000
v -0.123840 -0.094368 0.600000
v -0.148872 -0.103264 0.600000
v -0.175000 -0.106400 0.600000
v -0.201128 -0.103264 0.600000
v -0.229410 -0.092594 0.600000
v -0.226160 -0.094368 0.600000
v -0.148872 0.103264 0.600000
v -0.123840 0.094368 0.600000
v -0.175000 0.106400 0.600000
v -0.201128 0.103264 0.600000
v -0.226160 0.094368 0.600000
v -0.120591 0.092594 0.600000
v -0.229410 0.092594 0.600000
v -0.260546 0.065001 0.600000
v -0.262769 0.061529 0.600000
v -0.276280 0.033137 0.600000
v -0.281400 0.000000 0.600000
v -0.262769 -0.061529 0.600000
v -0.260546 -0.065001 0.600000
v -0.276280 -0.033137 0.600000
vt 0.4939 0.6395
vt 0.3558 0.4995
vt 0.4949 0.5000
vt 0.4960 0.3607
vt 0.3581 0.3589
vt 0.4972 0.2183
vt 0.3631 0.2152
vt 0.4982 0.0708
vt 0.3716 0.0662
vt 0.4928 0.9289
vt 0.3696 0.9856
vt 0.3665 0.9319
vt 0.3595 0.7834
vt 0.4934 0.7816
vt 0.3562 0.6398
vt 0.2161 0.6436
vt 0.2139 0.4992
vt 0.2178 0.3547
vt 0.2265 0.2068
vt 0.2408 0.0620
vt 0.2564 0.0541
vt 0.2520 0.9425
vt 0.2366 0.9344
vt 0.2239 0.7905
vt 0.0921 0.8027
vt 0.0816 0.7868
vt 0.0706 0.6506
vt 0.0659 0.4992
vt 0.0710 0.3470
vt 0.0828 0.2095
vt 0.0184 0.6544
vt -0.0058 0.4991
vt 0.0183 0.3430
vt 0.9234 0.5012
vt 0.7720 0.6453
vt 0.7758 0.5009
vt 0.7739 0.3567
vt 0.9190 0.3501
vt 0.9065 0.7897
vt 0.7633 0.7925
vt 0.9183 0.6529
vt 0.7340 0.9447
vt 0.6193 0.9331
vt 0.6274 0.7845
vt 0.6316 0.6407
vt 0.6340 0.5004
vt 0.6338 0.3601
vt 0.6310 0.2169
vt 0.7665 0.2101
vt 0.6245 0.0683
vt 0.6156 0.9868
vt 0.3755 0.0123
vt 0.6216 0.0147
vt 0.4989 -0.0010
vt 0.9712 0.3464
vt 0.7543 0.0664
vt 0.8980 0.1984
vt 0.8958 0.8056
vt 0.7495 0.9368
vt 0.9707 0.6569
vt 0.9949 0.5013
vt 0.9085 0.2142
vt 0.7389 0.0583
vt 0.0936 0.1936
vt 0.4925 1.0007
vn 0.1404 0.1404 -0.9801
vn 0.1404 -0.1404 -0.9801
vn 0.1300 -0.4003 -0.9071
vn 0.1124 -0.6099 -0.7845
vn 0.0916 0.7633 -0.6395
vn 0.1124 0.6099 -0.7845
vn 0.1300 0.4002 -0.9071
vn 0.3722 0.3871 -0.8436
vn 0.4000 0.1351 -0.9065
vn 0.4000 -0.1351 -0.9065
vn 0.3722 -0.3871 -0.8436
vn 0.3245 -0.5947 -0.7355
vn 0.2668 0.7505 -0.6046
vn 0.3246 0.5947 -0.7355
vn 0.5046 0.5694 -0.6490
vn 0.5712 0.3658 -0.7348
vn 0.6088 0.1266 -0.7831
vn 0.6088 -0.1266 -0.7831
vn 0.5712 -0.3658 -0.7348
vn 0.7201 0.3427 -0.6033
vn 0.7612 0.1176 -0.6377
vn 0.7612 -0.1176 -0.6377
vn -0.6088 0.1266 -0.7831
vn -0.6088 -0.1266 -0.7831
vn -0.5712 0.3658 -0.7348
vn -0.3245 0.5947 -0.7355
vn -0.3722 0.3871 -0.8436
vn -0.4000 0.1351 -0.9065
vn -0.4000 -0.1351 -0.9065
vn -0.3722 -0.3871 -0.8436
vn -0.1404 0.1404 -0.9801
vn -0.1404 -0.1404 -0.9801
vn -0.1300 -0.4003 -0.9071
vn -0.1124 -0.6099 -0.7845
vn -0.0916 0.7633 -0.6395
vn -0.1124 0.6099 -0.7845
vn -0.1300 0.4002 -0.9071
vn 0.2668 -0.7505 -0.6046
vn -0.0916 -0.7633 -0.6395
vn -0.7612 -0.1176 -0.6377
vn 0.0916 -0.7633 -0.6395
vn -0.5046 -0.5694 -0.6490
vn -0.2668 0.7505 -0.6046
vn 0.7201 -0.3427 -0.6033
vn -0.5046 0.5694 -0.6490
vn -0.5712 -0.3658 -0.7348
vn -0.7612 0.1176 -0.6377
vn -0.7201 0.3427 -0.6033
vn -0.7201 -0.3427 -0.6033
vn -0.2668 -0.7505 -0.6046
vn -0.3245 -0.5947 -0.7355
vn 0.5046 -0.5694 -0.6490
vn 0.1300 0.4003 -0.9071
vn 0.3245 0.5947 -0.7355
vn -0.1300 -0.4002 -0.9071
s off
f 33/1/1 4/2/1 34/3/1
f 35/4/2 4/2/2 5/5/2
f 36/6/3 5/5/3 6/7/3
f 37/8/4 6/7/4 7/9/4
f 31/10/5 52/11/5 1/12/5
f 31/10/6 2/13/6 32/14/6
f 32/14/7 3/15/7 33/1/7
f 2/13/8 9/16/8 3/15/8
f 3/15/9 10/17/9 4/2/9
f 5/5/10 10/17/10 11/18/10
f 6/7/11 11/18/11 12/19/11
f 12/19/12 44/20/12 46/21/12
f 1/12/13 52/11/13 53/22/13
f 53/22/14 57/23/14 8/24/14
f 8/24/15 57/23/15 38/25/15
f 8/24/16 39/26/16 13/27/16
f 9/16/17 14/28/17 10/17/17
f 11/18/18 14/28/18 15/29/18
f 15/29/19 42/30/19 12/19/19
f 13/27/20 39/26/20 40/31/20
f 14/28/21 40/31/21 41/32/21
f 14/28/22 45/33/22 15/29/22
f 17/34/23 20/35/23 21/36/23
f 17/34/24 22/37/24 18/38/24
f 60/39/25 19/40/25 16/41/25
f 56/42/26 24/43/26 19/40/26
f 20/35/27 25/44/27 26/45/27
f 21/36/28 26/45/28 27/46/28
f 21/36/29 28/47/29 22/37/29
f 22/37/30 29/48/30 23/49/30
f 27/46/31 33/1/31 34/3/31
f 27/46/32 35/4/32 28/47/32
f 28/47/33 36/6/33 29/48/33
f 29/48/34 37/8/34 30/50/34
f 55/51/35 31/10/35 24/43/35
f 25/44/36 31/10/36 32/14/36
f 26/45/37 32/14/37 33/1/37
f 46/21/38 47/52/38 7/9/38
f 49/53/39 37/8/39 48/54/39
f 65/55/40 17/34/40 18/38/40
f 47/52/41 37/8/41 7/9/41
f 50/56/42 64/57/42 23/49/42
f 56/42/43 55/51/43 24/43/43
f 45/33/44 42/30/44 15/29/44
f 59/58/45 58/59/45 19/40/45
f 18/38/46 22/37/46 23/49/46
f 61/60/47 17/34/47 62/61/47
f 61/60/48 60/39/48 16/41/48
f 63/62/49 65/55/49 18/38/49
f 49/53/50 51/63/50 30/50/50
f 23/49/51 29/48/51 30/50/51
f 43/64/52 44/20/52 12/19/52
f 33/1/1 3/15/1 4/2/1
f 35/4/2 34/3/2 4/2/2
f 36/6/3 35/4/3 5/5/3
f 37/8/4 36/6/4 6/7/4
f 31/10/5 54/65/5 52/11/5
f 31/10/6 1/12/6 2/13/6
f 32/14/53 2/13/53 3/15/53
f 2/13/8 8/24/8 9/16/8
f 3/15/9 9/16/9 10/17/9
f 5/5/10 4/2/10 10/17/10
f 6/7/11 5/5/11 11/18/11
f 46/21/12 7/9/12 12/19/12
f 6/7/12 12/19/12 7/9/12
f 8/24/54 2/13/54 1/12/54
f 1/12/54 53/22/54 8/24/54
f 13/27/16 9/16/16 8/24/16
f 8/24/16 38/25/16 39/26/16
f 9/16/17 13/27/17 14/28/17
f 11/18/18 10/17/18 14/28/18
f 43/64/19 12/19/19 42/30/19
f 11/18/19 15/29/19 12/19/19
f 14/28/21 13/27/21 40/31/21
f 14/28/22 41/32/22 45/33/22
f 17/34/23 16/41/23 20/35/23
f 17/34/24 21/36/24 22/37/24
f 20/35/25 16/41/25 19/40/25
f 60/39/25 59/58/25 19/40/25
f 25/44/26 19/40/26 24/43/26
f 58/59/26 56/42/26 19/40/26
f 20/35/27 19/40/27 25/44/27
f 21/36/28 20/35/28 26/45/28
f 21/36/29 27/46/29 28/47/29
f 22/37/30 28/47/30 29/48/30
f 27/46/31 26/45/31 33/1/31
f 27/46/32 34/3/32 35/4/32
f 28/47/55 35/4/55 36/6/55
f 29/48/34 36/6/34 37/8/34
f 55/51/35 54/65/35 31/10/35
f 25/44/36 24/43/36 31/10/36
f 26/45/37 25/44/37 32/14/37
f 49/53/39 30/50/39 37/8/39
f 65/55/40 62/61/40 17/34/40
f 47/52/41 48/54/41 37/8/41
f 23/49/46 64/57/46 63/62/46
f 63/62/46 18/38/46 23/49/46
f 61/60/47 16/41/47 17/34/47
f 30/50/51 51/63/51 23/49/51
f 50/56/51 23/49/51 51/63/51
g Lense_1_Sphere.000
v 0.202553 0.094368 0.589584
v 0.205615 0.065001 0.567192
v 0.207501 0.033137 0.553403
v 0.208137 0.000000 0.548747
v 0.207501 -0.033137 0.553403
v 0.205615 -0.065001 0.567192
v 0.202553 -0.094368 0.589584
v 0.235053 0.065001 0.580181
v 0.238752 0.033137 0.567192
v 0.240001 0.000000 0.562806
v 0.238752 -0.033137 0.567192
v 0.235053 -0.065001 0.580181
v 0.267554 0.033137 0.589584
v 0.269367 0.000000 0.585637
v 0.267554 -0.033137 0.589584
v 0.082446 0.033137 0.589584
v 0.080633 0.000000 0.585637
v 0.082446 -0.033137 0.589584
v 0.114946 0.065001 0.580181
v 0.111248 0.033137 0.567192
v 0.109999 0.000000 0.562806
v 0.111248 -0.033137 0.567192
v 0.114946 -0.065001 0.580181
v 0.147447 0.094368 0.589584
v 0.144385 0.065001 0.567192
v 0.142499 0.033137 0.553403
v 0.141863 0.000000 0.548747
v 0.142499 -0.033137 0.553403
v 0.144385 -0.065001 0.567192
v 0.147447 -0.094368 0.589584
v 0.175000 0.094368 0.585637
v 0.175000 0.065001 0.562806
v 0.175000 0.033137 0.548747
v 0.175000 0.000000 0.544000
v 0.175000 -0.033137 0.548747
v 0.175000 -0.065001 0.562806
v 0.175000 -0.094368 0.585637
v 0.260546 0.065001 0.600000
v 0.262769 0.061530 0.600000
v 0.276280 0.033137 0.600000
v 0.281400 0.000000 0.600000
v 0.262769 -0.061530 0.600000
v 0.260546 -0.065001 0.600000
v 0.229409 -0.092594 0.600000
v 0.276280 -0.033137 0.600000
v 0.226160 -0.094368 0.600000
v 0.201128 -0.103264 0.600000
v 0.175000 -0.106400 0.600000
v 0.148872 -0.103264 0.600000
v 0.120591 -0.092594 0.600000
v 0.123840 -0.094368 0.600000
v 0.201128 0.103264 0.600000
v 0.226160 0.094368 0.600000
v 0.175000 0.106400 0.600000
v 0.148872 0.103264 0.600000
v 0.123840 0.094368 0.600000
v 0.229409 0.092594 0.600000
v 0.120591 0.092594 0.600000
v 0.089454 0.065001 0.600000
v 0.087231 0.061529 0.600000
v 0.073720 0.033137 0.600000
v 0.068600 0.000000 0.600000
v 0.087231 -0.061529 0.600000
v 0.089454 -0.065001 0.600000
v 0.073720 -0.033137 0.600000
vt 0.4939 0.6395
vt 0.3558 0.4995
vt 0.4949 0.5000
vt 0.4960 0.3607
vt 0.3581 0.3589
vt 0.4972 0.2183
vt 0.3631 0.2152
vt 0.4982 0.0708
vt 0.3716 0.0662
vt 0.4928 0.9289
vt 0.3696 0.9856
vt 0.3665 0.9319
vt 0.3595 0.7834
vt 0.4934 0.7816
vt 0.3562 0.6398
vt 0.2161 0.6436
vt 0.2139 0.4992
vt 0.2178 0.3547
vt 0.2265 0.2068
vt 0.2408 0.0620
vt 0.2564 0.0541
vt 0.2520 0.9425
vt 0.2366 0.9344
vt 0.2239 0.7905
vt 0.0921 0.8027
vt 0.0816 0.7868
vt 0.0706 0.6506
vt 0.0659 0.4992
vt 0.0710 0.3470
vt 0.0828 0.2095
vt 0.0184 0.6544
vt -0.0058 0.4991
vt 0.0183 0.3430
vt 0.9234 0.5012
vt 0.7720 0.6453
vt 0.7758 0.5009
vt 0.7739 0.3567
vt 0.9190 0.3501
vt 0.9065 0.7897
vt 0.7633 0.7925
vt 0.9183 0.6529
vt 0.7340 0.9447
vt 0.6193 0.9331
vt 0.6274 0.7845
vt 0.6316 0.6407
vt 0.6340 0.5004
vt 0.6338 0.3601
vt 0.6310 0.2169
vt 0.7665 0.2101
vt 0.6245 0.0683
vt 0.6156 0.9868
vt 0.3755 0.0123
vt 0.6216 0.0147
vt 0.4989 -0.0010
vt 0.9712 0.3464
vt 0.7543 0.0664
vt 0.8980 0.1984
vt 0.8958 0.8056
vt 0.7495 0.9368
vt 0.9707 0.6569
vt 0.9949 0.5013
vt 0.9085 0.2142
vt 0.7389 0.0583
vt 0.0936 0.1936
vt 0.4925 1.0007
vn 0.1404 0.1404 -0.9801
vn 0.1404 -0.1404 -0.9801
vn 0.1300 -0.4003 -0.9071
vn 0.1124 -0.6099 -0.7845
vn 0.0916 0.7633 -0.6395
vn 0.1124 0.6099 -0.7845
vn 0.1300 0.4002 -0.9071
vn 0.3722 0.3871 -0.8436
vn 0.4000 0.1351 -0.9065
vn 0.4000 -0.1351 -0.9065
vn 0.3722 -0.3871 -0.8436
vn 0.3245 -0.5947 -0.7355
vn 0.2668 0.7505 -0.6046
vn 0.3246 0.5947 -0.7355
vn 0.5046 0.5694 -0.6490
vn 0.5712 0.3658 -0.7348
vn 0.6088 0.1266 -0.7831
vn 0.6088 -0.1266 -0.7831
vn 0.5712 -0.3658 -0.7348
vn 0.7201 0.3427 -0.6033
vn 0.7612 0.1176 -0.6377
vn 0.7612 -0.1176 -0.6377
vn -0.6088 0.1266 -0.7831
vn -0.6088 -0.1266 -0.7831
vn -0.5712 0.3658 -0.7348
vn -0.3245 0.5947 -0.7355
vn -0.3722 0.3871 -0.8436
vn -0.4000 0.1351 -0.9065
vn -0.4000 -0.1351 -0.9065
vn -0.3722 -0.3871 -0.8436
vn -0.1404 0.1404 -0.9801
vn -0.1404 -0.1404 -0.9801
vn -0.1300 -0.4003 -0.9071
vn -0.1124 -0.6099 -0.7845
vn -0.0916 0.7633 -0.6395
vn -0.1124 0.6099 -0.7845
vn -0.1300 0.4002 -0.9071
vn 0.2668 -0.7505 -0.6046
vn -0.0916 -0.7633 -0.6395
vn -0.7612 -0.1176 -0.6377
vn 0.0916 -0.7633 -0.6395
vn -0.5046 -0.5694 -0.6490
vn -0.2668 0.7505 -0.6046
vn 0.7201 -0.3427 -0.6033
vn -0.5046 0.5694 -0.6490
vn -0.5712 -0.3658 -0.7348
vn -0.7612 0.1176 -0.6377
vn -0.7201 0.3427 -0.6033
vn -0.7201 -0.3427 -0.6033
vn -0.2668 -0.7505 -0.6046
vn -0.3245 -0.5947 -0.7355
vn 0.5046 -0.5694 -0.6490
vn 0.1300 -0.4002 -0.9071
vn 0.1300 0.4003 -0.9071
vn 0.3245 0.5947 -0.7355
vn -0.1300 -0.4002 -0.9071
s off
f 98/66/56 69/67/56 99/68/56
f 100/69/57 69/67/57 70/70/57
f 101/71/58 70/70/58 71/72/58
f 102/73/59 71/72/59 72/74/59
f 96/75/60 117/76/60 66/77/60
f 96/75/61 67/78/61 97/79/61
f 97/79/62 68/80/62 98/66/62
f 67/78/63 74/81/63 68/80/63
f 68/80/64 75/82/64 69/67/64
f 70/70/65 75/82/65 76/83/65
f 71/72/66 76/83/66 77/84/66
f 77/84/67 109/85/67 111/86/67
f 66/77/68 117/76/68 118/87/68
f 118/87/69 122/88/69 73/89/69
f 73/89/70 122/88/70 103/90/70
f 73/89/71 104/91/71 78/92/71
f 74/81/72 79/93/72 75/82/72
f 76/83/73 79/93/73 80/94/73
f 80/94/74 107/95/74 77/84/74
f 78/92/75 104/91/75 105/96/75
f 79/93/76 105/96/76 106/97/76
f 79/93/77 110/98/77 80/94/77
f 82/99/78 85/100/78 86/101/78
f 82/99/79 87/102/79 83/103/79
f 125/104/80 84/105/80 81/106/80
f 121/107/81 89/108/81 84/105/81
f 85/100/82 90/109/82 91/110/82
f 86/101/83 91/110/83 92/111/83
f 86/101/84 93/112/84 87/102/84
f 87/102/85 94/113/85 88/114/85
f 92/111/86 98/66/86 99/68/86
f 92/111/87 100/69/87 93/112/87
f 93/112/88 101/71/88 94/113/88
f 94/113/89 102/73/89 95/115/89
f 120/116/90 96/75/90 89/108/90
f 90/109/91 96/75/91 97/79/91
f 91/110/92 97/79/92 98/66/92
f 111/86/93 112/117/93 72/74/93
f 114/118/94 102/73/94 113/119/94
f 130/120/95 82/99/95 83/103/95
f 112/117/96 102/73/96 72/74/96
f 115/121/97 129/122/97 88/114/97
f 121/107/98 120/116/98 89/108/98
f 110/98/99 107/95/99 80/94/99
f 124/123/100 123/124/100 84/105/100
f 83/103/101 87/102/101 88/114/101
f 126/125/102 82/99/102 127/126/102
f 126/125/103 125/104/103 81/106/103
f 128/127/104 130/120/104 83/103/104
f 114/118/105 116/128/105 95/115/105
f 88/114/106 94/113/106 95/115/106
f 108/129/107 109/85/107 77/84/107
f 98/66/56 68/80/56 69/67/56
f 100/69/57 99/68/57 69/67/57
f 101/71/108 100/69/108 70/70/108
f 102/73/59 101/71/59 71/72/59
f 96/75/60 119/130/60 117/76/60
f 96/75/61 66/77/61 67/78/61
f 97/79/109 67/78/109 68/80/109
f 67/78/63 73/89/63 74/81/63
f 68/80/64 74/81/64 75/82/64
f 70/70/65 69/67/65 75/82/65
f 71/72/66 70/70/66 76/83/66
f 111/86/67 72/74/67 77/84/67
f 71/72/67 77/84/67 72/74/67
f 73/89/110 67/78/110 66/77/110
f 66/77/110 118/87/110 73/89/110
f 78/92/71 74/81/71 73/89/71
f 73/89/71 103/90/71 104/91/71
f 74/81/72 78/92/72 79/93/72
f 76/83/73 75/82/73 79/93/73
f 108/129/74 77/84/74 107/95/74
f 76/83/74 80/94/74 77/84/74
f 79/93/76 78/92/76 105/96/76
f 79/93/77 106/97/77 110/98/77
f 82/99/78 81/106/78 85/100/78
f 82/99/79 86/101/79 87/102/79
f 85/100/80 81/106/80 84/105/80
f 125/104/80 124/123/80 84/105/80
f 90/109/81 84/105/81 89/108/81
f 123/124/81 121/107/81 84/105/81
f 85/100/82 84/105/82 90/109/82
f 86/101/83 85/100/83 91/110/83
f 86/101/84 92/111/84 93/112/84
f 87/102/85 93/112/85 94/113/85
f 92/111/86 91/110/86 98/66/86
f 92/111/87 99/68/87 100/69/87
f 93/112/111 100/69/111 101/71/111
f 94/113/89 101/71/89 102/73/89
f 120/116/90 119/130/90 96/75/90
f 90/109/91 89/108/91 96/75/91
f 91/110/92 90/109/92 97/79/92
f 114/118/94 95/115/94 102/73/94
f 130/120/95 127/126/95 82/99/95
f 112/117/96 113/119/96 102/73/96
f 88/114/101 129/122/101 128/127/101
f 128/127/101 83/103/101 88/114/101
f 126/125/102 81/106/102 82/99/102
f 95/115/106 116/128/106 88/114/106
f 115/121/106 88/114/106 116/128/106
g Base_Cube.003
v -0.331249 -0.031250 0.600000
v -0.331249 0.156250 0.600000
v -0.331249 0.156250 0.412500
v -0.018751 -0.031250 0.600000
v -0.018751 0.156250 0.600000
v -0.018751 0.156250 0.412500
v -0.331249 -0.031250 0.568750
v -0.050001 -0.031250 0.600000
v -0.331249 0.125000 0.412500
v -0.018751 0.125000 0.412500
v -0.018751 -0.031250 0.568750
v -0.299999 -0.031250 0.600000
v -0.299999 0.125000 0.412500
v -0.050001 0.125000 0.600000
v -0.299999 -0.031250 0.568750
v -0.050001 -0.031250 0.568750
v -0.299999 0.125000 0.600000
v -0.050001 0.125000 0.412500
v 0.018751 -0.031250 0.600000
v 0.018751 0.156250 0.600000
v 0.018751 0.156250 0.412500
v 0.331249 -0.031250 0.600000
v 0.331249 0.156250 0.600000
v 0.331249 0.156250 0.412500
v 0.018751 -0.031250 0.568750
v 0.299999 -0.031250 0.600000
v 0.018751 0.125000 0.412500
v 0.331249 0.125000 0.412500
v 0.331249 -0.031250 0.568750
v 0.050001 -0.031250 0.600000
v 0.050001 0.125000 0.412500
v 0.299999 0.125000 0.600000
v 0.050001 -0.031250 0.568750
v 0.299999 -0.031250 0.568750
v 0.050001 0.125000 0.600000
v 0.299999 0.125000 0.412500
v -0.425000 -0.187500 0.600000
v -0.425000 -0.187500 0.850000
v -0.425000 0.187500 0.850000
v -0.425000 0.187500 0.600000
v 0.425000 -0.187500 0.600000
v 0.425000 -0.187500 0.850000
v 0.425000 0.187500 0.850000
v 0.425000 0.187500 0.600000
vt 0.3889 0.9444
vt 0.4444 0.8889
vt 0.4444 0.9444
vt 0.6667 0.3333
vt 0.7222 0.0000
vt 1.0000 0.2778
vt 0.0556 0.0556
vt 0.0556 0.5000
vt 0.0000 0.0000
vt 0.3889 0.5556
vt 0.6667 0.8333
vt 0.3333 0.8889
vt 0.0556 0.0000
vt 0.3333 0.0556
vt 0.3889 0.8889
vt 0.3333 0.9444
vt 0.3333 0.8889
vt 0.6667 0.0000
vt 0.3333 0.5556
vt 0.3333 0.0000
vt 0.3333 0.5556
vt 0.0556 0.5556
vt 0.9444 0.6111
vt 0.6667 0.6667
vt 0.6667 0.3333
vt 0.0000 0.5556
vt 0.3333 1.0000
vt 0.0000 1.0000
vt 0.9444 1.0000
vt 0.6667 0.9444
vt 0.9444 0.6667
vt 0.3889 0.9444
vt 0.4444 0.8889
vt 0.4444 0.9444
vt 0.6667 0.3333
vt 0.7222 0.0000
vt 1.0000 0.2778
vt 0.0556 0.5000
vt 0.0556 0.5556
vt 0.0000 0.5556
vt 0.3889 0.5556
vt 0.6667 0.8333
vt 0.3333 0.8889
vt 0.3333 0.0000
vt 0.0556 0.0556
vt 0.0556 0.0000
vt 0.3889 0.8889
vt 0.3333 0.9444
vt 0.3333 0.8889
vt 0.6667 0.0000
vt 0.3333 0.5556
vt 0.3333 0.0000
vt 0.3333 0.5556
vt 0.9444 0.6111
vt 0.6667 0.6667
vt 0.6667 0.3333
vt 0.0000 0.5556
vt 0.3333 1.0000
vt 0.0000 1.0000
vt 0.9444 1.0000
vt 0.6667 0.9444
vt 0.9444 0.6667
vt 0.4000 0.6800
vt 0.2000 0.9800
vt 0.2000 0.6800
vt 0.0000 0.6800
vt 0.2000 0.9800
vt 0.0000 0.9800
vt 1.0000 0.6800
vt 0.8000 0.0000
vt 1.0000 0.0000
vt 0.0000 0.0000
vt 0.3000 0.6800
vt 0.0000 0.6800
vt 0.8000 0.0000
vt 0.6000 0.6800
vt 0.6000 0.0000
vt 0.3000 0.6800
vt 0.3889 0.8889
vt 1.0000 0.3333
vt 0.6667 0.0000
vt 0.0000 0.5556
vt 0.6667 0.8889
vt 0.3333 0.5556
vt 0.3333 0.0000
vt 0.3889 0.9444
vt 0.6667 0.5556
vt 0.3333 0.5000
vt 0.9444 0.6667
vt 0.3333 0.5556
vt 0.6667 1.0000
vt 0.3889 0.8889
vt 1.0000 0.3333
vt 0.6667 0.0000
vt 0.0000 0.0000
vt 0.6667 0.8889
vt 0.3333 0.5556
vt 0.3333 0.0556
vt 0.3889 0.9444
vt 0.6667 0.5556
vt 0.3333 0.5000
vt 0.9444 0.6667
vt 0.3333 0.5556
vt 0.6667 1.0000
vt 0.4000 0.9800
vt 0.2000 0.6800
vt 0.8000 0.6800
vt 0.3000 0.0000
vt 0.8000 0.6800
vt 0.3000 0.0000
vn 0.0000 -1.0000 0.0000
vn -1.0000 -0.0000 0.0000
vn 0.0000 0.0000 -1.0000
vn 1.0000 0.0000 -0.0000
vn 0.0000 -0.7071 -0.7071
vn -0.0000 1.0000 0.0000
vn -0.0000 0.0000 1.0000
s off
f 141/131/112 138/132/112 146/133/112
f 132/134/113 139/135/113 137/136/113
f 148/137/114 143/138/114 136/139/114
f 141/140/115 140/141/115 135/142/115
f 140/143/116 146/144/116 148/137/116
f 145/145/112 131/146/112 137/147/112
f 136/148/117 132/149/117 135/150/117
f 143/138/116 137/151/116 139/152/116
f 146/153/113 144/154/113 148/155/113
f 148/156/112 147/157/112 143/158/112
f 147/159/115 145/160/115 143/161/115
f 159/162/112 156/163/112 164/164/112
f 150/165/113 157/166/113 155/167/113
f 161/168/114 157/169/114 151/170/114
f 159/171/115 158/172/115 153/173/115
f 159/174/116 166/175/116 158/176/116
f 163/177/112 149/178/112 155/179/112
f 154/180/117 150/181/117 153/182/117
f 161/168/116 155/183/116 157/169/116
f 164/184/113 162/185/113 166/186/113
f 166/187/112 165/188/112 161/189/112
f 165/190/115 163/191/115 161/192/115
f 168/193/113 170/194/113 167/195/113
f 174/196/115 172/197/115 171/198/115
f 171/199/112 168/200/112 167/201/112
f 172/202/118 169/203/118 168/204/118
f 169/205/117 174/206/117 170/207/117
f 171/208/114 170/207/114 174/206/114
f 141/131/112 134/209/112 138/132/112
f 137/136/113 131/210/113 132/134/113
f 132/134/113 133/211/113 139/135/113
f 133/212/114 136/139/114 143/138/114
f 140/143/114 148/137/114 136/139/114
f 143/138/114 139/152/114 133/212/114
f 136/213/115 135/142/115 140/141/115
f 134/214/115 141/140/115 135/142/115
f 140/143/116 141/215/116 146/144/116
f 145/145/112 142/216/112 131/146/112
f 136/148/117 133/217/117 132/149/117
f 143/138/116 145/218/116 137/151/116
f 146/153/113 138/219/113 144/154/113
f 148/156/112 144/220/112 147/157/112
f 147/159/115 142/221/115 145/160/115
f 159/162/112 152/222/112 156/163/112
f 155/167/113 149/223/113 150/165/113
f 150/165/113 151/224/113 157/166/113
f 151/170/114 154/225/114 166/175/114
f 166/175/114 161/168/114 151/170/114
f 154/225/114 158/176/114 166/175/114
f 154/226/115 153/173/115 158/172/115
f 152/227/115 159/171/115 153/173/115
f 159/174/116 164/228/116 166/175/116
f 163/177/112 160/229/112 149/178/112
f 154/180/117 151/230/117 150/181/117
f 161/168/116 163/231/116 155/183/116
f 164/184/113 156/232/113 162/185/113
f 166/187/112 162/233/112 165/188/112
f 165/190/115 160/234/115 163/191/115
f 168/193/113 169/235/113 170/194/113
f 174/196/115 173/236/115 172/197/115
f 171/199/112 172/237/112 168/200/112
f 172/202/118 173/238/118 169/203/118
f 169/205/117 173/239/117 174/206/117
f 171/208/114 167/240/114 170/207/114
