# Blender v2.78 (sub 0) OBJ File: 'Ampel 05 - L1 01.blend'
# www.blender.org
g Lense_1_Sphere.000
v 0.027553 0.094368 0.589584
v 0.030615 0.065001 0.567192
v 0.032501 0.033137 0.553403
v 0.033137 0.000000 0.548747
v 0.032501 -0.033137 0.553403
v 0.030615 -0.065001 0.567192
v 0.027553 -0.094368 0.589584
v 0.060053 0.065001 0.580181
v 0.063752 0.033137 0.567192
v 0.065001 0.000000 0.562806
v 0.063752 -0.033137 0.567192
v 0.060053 -0.065001 0.580181
v 0.092554 0.033137 0.589584
v 0.094367 0.000000 0.585637
v 0.092554 -0.033137 0.589584
v -0.092554 0.033137 0.589584
v -0.094367 0.000000 0.585637
v -0.092554 -0.033137 0.589584
v -0.060053 0.065001 0.580181
v -0.063752 0.033137 0.567192
v -0.065001 0.000000 0.562806
v -0.063752 -0.033137 0.567192
v -0.060053 -0.065001 0.580181
v -0.027553 0.094368 0.589584
v -0.030615 0.065001 0.567192
v -0.032501 0.033137 0.553403
v -0.033137 0.000000 0.548747
v -0.032501 -0.033137 0.553403
v -0.030615 -0.065001 0.567192
v -0.027553 -0.094368 0.589584
v 0.000000 0.094368 0.585637
v 0.000000 0.065001 0.562806
v 0.000000 0.033137 0.548747
v 0.000000 0.000000 0.544000
v 0.000000 -0.033137 0.548747
v 0.000000 -0.065001 0.562806
v 0.000000 -0.094368 0.585637
v 0.085546 0.065001 0.600000
v 0.087769 0.061530 0.600000
v 0.101280 0.033137 0.600000
v 0.106400 0.000000 0.600000
v 0.087769 -0.061530 0.600000
v 0.085546 -0.065001 0.600000
v 0.054409 -0.092594 0.600000
v 0.101280 -0.033137 0.600000
v 0.051160 -0.094368 0.600000
v 0.026128 -0.103264 0.600000
v 0.000000 -0.106400 0.600000
v -0.026128 -0.103264 0.600000
v -0.054409 -0.092594 0.600000
v -0.051160 -0.094368 0.600000
v 0.026128 0.103264 0.600000
v 0.051160 0.094368 0.600000
v 0.000000 0.106400 0.600000
v -0.026128 0.103264 0.600000
v -0.051160 0.094368 0.600000
v 0.054409 0.092594 0.600000
v -0.054409 0.092594 0.600000
v -0.085546 0.065001 0.600000
v -0.087769 0.061529 0.600000
v -0.101280 0.033137 0.600000
v -0.106400 0.000000 0.600000
v -0.087769 -0.061529 0.600000
v -0.085546 -0.065001 0.600000
v -0.101280 -0.033137 0.600000
vt 0.4939 0.6395
vt 0.3558 0.4995
vt 0.4949 0.5000
vt 0.4960 0.3607
vt 0.3581 0.3589
vt 0.4972 0.2183
vt 0.3631 0.2152
vt 0.4982 0.0708
vt 0.3716 0.0662
vt 0.4928 0.9289
vt 0.3696 0.9856
vt 0.3665 0.9319
vt 0.3595 0.7834
vt 0.4934 0.7816
vt 0.3562 0.6398
vt 0.2161 0.6436
vt 0.2139 0.4992
vt 0.2178 0.3547
vt 0.2265 0.2068
vt 0.2408 0.0620
vt 0.2564 0.0541
vt 0.2520 0.9425
vt 0.2366 0.9344
vt 0.2239 0.7905
vt 0.0921 0.8027
vt 0.0816 0.7868
vt 0.0706 0.6506
vt 0.0659 0.4992
vt 0.0710 0.3470
vt 0.0828 0.2095
vt 0.0184 0.6544
vt -0.0058 0.4991
vt 0.0183 0.3430
vt 0.9234 0.5012
vt 0.7720 0.6453
vt 0.7758 0.5009
vt 0.7739 0.3567
vt 0.9190 0.3501
vt 0.9065 0.7897
vt 0.7633 0.7925
vt 0.9183 0.6529
vt 0.7340 0.9447
vt 0.6193 0.9331
vt 0.6274 0.7845
vt 0.6316 0.6407
vt 0.6340 0.5004
vt 0.6338 0.3601
vt 0.6310 0.2169
vt 0.7665 0.2101
vt 0.6245 0.0683
vt 0.6156 0.9868
vt 0.3755 0.0123
vt 0.6216 0.0147
vt 0.4989 -0.0010
vt 0.9712 0.3464
vt 0.7543 0.0664
vt 0.8980 0.1984
vt 0.8958 0.8056
vt 0.7495 0.9368
vt 0.9707 0.6569
vt 0.9949 0.5013
vt 0.9085 0.2142
vt 0.7389 0.0583
vt 0.0936 0.1936
vt 0.4925 1.0007
vn 0.1404 0.1404 -0.9801
vn 0.1404 -0.1404 -0.9801
vn 0.1300 -0.4003 -0.9071
vn 0.1124 -0.6099 -0.7845
vn 0.0916 0.7633 -0.6395
vn 0.1124 0.6099 -0.7845
vn 0.1300 0.4002 -0.9071
vn 0.3722 0.3871 -0.8436
vn 0.4000 0.1351 -0.9065
vn 0.4000 -0.1351 -0.9065
vn 0.3722 -0.3871 -0.8436
vn 0.3245 -0.5947 -0.7355
vn 0.2668 0.7505 -0.6046
vn 0.3246 0.5947 -0.7355
vn 0.5046 0.5694 -0.6490
vn 0.5712 0.3658 -0.7348
vn 0.6088 0.1266 -0.7831
vn 0.6088 -0.1266 -0.7831
vn 0.5712 -0.3658 -0.7348
vn 0.7201 0.3427 -0.6033
vn 0.7612 0.1176 -0.6377
vn 0.7612 -0.1176 -0.6377
vn -0.6088 0.1266 -0.7831
vn -0.6088 -0.1266 -0.7831
vn -0.5712 0.3658 -0.7348
vn -0.3245 0.5947 -0.7355
vn -0.3722 0.3871 -0.8436
vn -0.4000 0.1351 -0.9065
vn -0.4000 -0.1351 -0.9065
vn -0.3722 -0.3871 -0.8436
vn -0.1404 0.1404 -0.9801
vn -0.1404 -0.1404 -0.9801
vn -0.1300 -0.4003 -0.9071
vn -0.1124 -0.6099 -0.7845
vn -0.0916 0.7633 -0.6395
vn -0.1124 0.6099 -0.7845
vn -0.1300 0.4002 -0.9071
vn 0.2668 -0.7505 -0.6046
vn -0.0916 -0.7633 -0.6395
vn -0.7612 -0.1176 -0.6377
vn 0.0916 -0.7633 -0.6395
vn -0.5046 -0.5694 -0.6490
vn -0.2668 0.7505 -0.6046
vn 0.7201 -0.3427 -0.6033
vn -0.5046 0.5694 -0.6490
vn -0.5712 -0.3658 -0.7348
vn -0.7612 0.1176 -0.6377
vn -0.7201 0.3427 -0.6033
vn -0.7201 -0.3427 -0.6033
vn -0.2668 -0.7505 -0.6046
vn -0.3245 -0.5947 -0.7355
vn 0.5046 -0.5694 -0.6490
vn 0.1300 0.4003 -0.9071
vn 0.3245 0.5947 -0.7355
vn -0.1300 -0.4002 -0.9071
s off
f 33/1/1 4/2/1 34/3/1
f 35/4/2 4/2/2 5/5/2
f 36/6/3 5/5/3 6/7/3
f 37/8/4 6/7/4 7/9/4
f 31/10/5 52/11/5 1/12/5
f 31/10/6 2/13/6 32/14/6
f 32/14/7 3/15/7 33/1/7
f 2/13/8 9/16/8 3/15/8
f 3/15/9 10/17/9 4/2/9
f 5/5/10 10/17/10 11/18/10
f 6/7/11 11/18/11 12/19/11
f 12/19/12 44/20/12 46/21/12
f 1/12/13 52/11/13 53/22/13
f 53/22/14 57/23/14 8/24/14
f 8/24/15 57/23/15 38/25/15
f 8/24/16 39/26/16 13/27/16
f 9/16/17 14/28/17 10/17/17
f 11/18/18 14/28/18 15/29/18
f 15/29/19 42/30/19 12/19/19
f 13/27/20 39/26/20 40/31/20
f 14/28/21 40/31/21 41/32/21
f 14/28/22 45/33/22 15/29/22
f 17/34/23 20/35/23 21/36/23
f 17/34/24 22/37/24 18/38/24
f 60/39/25 19/40/25 16/41/25
f 56/42/26 24/43/26 19/40/26
f 20/35/27 25/44/27 26/45/27
f 21/36/28 26/45/28 27/46/28
f 21/36/29 28/47/29 22/37/29
f 22/37/30 29/48/30 23/49/30
f 27/46/31 33/1/31 34/3/31
f 27/46/32 35/4/32 28/47/32
f 28/47/33 36/6/33 29/48/33
f 29/48/34 37/8/34 30/50/34
f 55/51/35 31/10/35 24/43/35
f 25/44/36 31/10/36 32/14/36
f 26/45/37 32/14/37 33/1/37
f 46/21/38 47/52/38 7/9/38
f 49/53/39 37/8/39 48/54/39
f 65/55/40 17/34/40 18/38/40
f 47/52/41 37/8/41 7/9/41
f 50/56/42 64/57/42 23/49/42
f 56/42/43 55/51/43 24/43/43
f 45/33/44 42/30/44 15/29/44
f 59/58/45 58/59/45 19/40/45
f 18/38/46 22/37/46 23/49/46
f 61/60/47 17/34/47 62/61/47
f 61/60/48 60/39/48 16/41/48
f 63/62/49 65/55/49 18/38/49
f 49/53/50 51/63/50 30/50/50
f 23/49/51 29/48/51 30/50/51
f 43/64/52 44/20/52 12/19/52
f 33/1/1 3/15/1 4/2/1
f 35/4/2 34/3/2 4/2/2
f 36/6/3 35/4/3 5/5/3
f 37/8/4 36/6/4 6/7/4
f 31/10/5 54/65/5 52/11/5
f 31/10/6 1/12/6 2/13/6
f 32/14/53 2/13/53 3/15/53
f 2/13/8 8/24/8 9/16/8
f 3/15/9 9/16/9 10/17/9
f 5/5/10 4/2/10 10/17/10
f 6/7/11 5/5/11 11/18/11
f 46/21/12 7/9/12 12/19/12
f 6/7/12 12/19/12 7/9/12
f 8/24/54 2/13/54 1/12/54
f 1/12/54 53/22/54 8/24/54
f 13/27/16 9/16/16 8/24/16
f 8/24/16 38/25/16 39/26/16
f 9/16/17 13/27/17 14/28/17
f 11/18/18 10/17/18 14/28/18
f 43/64/19 12/19/19 42/30/19
f 11/18/19 15/29/19 12/19/19
f 14/28/21 13/27/21 40/31/21
f 14/28/22 41/32/22 45/33/22
f 17/34/23 16/41/23 20/35/23
f 17/34/24 21/36/24 22/37/24
f 20/35/25 16/41/25 19/40/25
f 60/39/25 59/58/25 19/40/25
f 25/44/26 19/40/26 24/43/26
f 58/59/26 56/42/26 19/40/26
f 20/35/27 19/40/27 25/44/27
f 21/36/28 20/35/28 26/45/28
f 21/36/29 27/46/29 28/47/29
f 22/37/30 28/47/30 29/48/30
f 27/46/31 26/45/31 33/1/31
f 27/46/32 34/3/32 35/4/32
f 28/47/55 35/4/55 36/6/55
f 29/48/34 36/6/34 37/8/34
f 55/51/35 54/65/35 31/10/35
f 25/44/36 24/43/36 31/10/36
f 26/45/37 25/44/37 32/14/37
f 49/53/39 30/50/39 37/8/39
f 65/55/40 62/61/40 17/34/40
f 47/52/41 48/54/41 37/8/41
f 23/49/46 64/57/46 63/62/46
f 63/62/46 18/38/46 23/49/46
f 61/60/47 16/41/47 17/34/47
f 30/50/51 51/63/51 23/49/51
f 50/56/51 23/49/51 51/63/51
g Base_Cube.001
v -0.156249 -0.031250 0.600000
v -0.156249 0.156250 0.600000
v -0.156249 0.156250 0.412500
v 0.156249 -0.031250 0.600000
v 0.156249 0.156250 0.600000
v 0.156249 0.156250 0.412500
v -0.156249 -0.031250 0.568750
v 0.124999 -0.031250 0.600000
v -0.156249 0.125000 0.412500
v 0.156249 0.125000 0.412500
v 0.156249 -0.031250 0.568750
v -0.124999 -0.031250 0.600000
v -0.124999 0.125000 0.412500
v 0.124999 0.125000 0.600000
v -0.124999 -0.031250 0.568750
v 0.124999 -0.031250 0.568750
v -0.124999 0.125000 0.600000
v 0.124999 0.125000 0.412500
v 0.187500 -0.200000 0.600000
v 0.187500 -0.200000 0.850000
v -0.187500 -0.200000 0.850000
v -0.187500 -0.200000 0.600000
v 0.187500 0.200000 0.600000
v 0.187500 0.200000 0.850000
v -0.187500 0.200000 0.850000
v -0.187500 0.200000 0.600000
vt 0.3889 0.9444
vt 0.4444 0.8889
vt 0.4444 0.9444
vt 0.6667 0.3333
vt 0.7222 0.0000
vt 1.0000 0.2778
vt 0.0556 0.5000
vt 0.0556 0.5556
vt 0.0000 0.5556
vt 0.3889 0.5556
vt 0.6667 0.8333
vt 0.3333 0.8889
vt 0.3333 0.0000
vt 0.0556 0.0556
vt 0.0556 0.0000
vt 0.3889 0.8889
vt 0.3333 0.9444
vt 0.3333 0.8889
vt 0.6667 0.0000
vt 0.3333 0.5556
vt 0.3333 0.0000
vt 0.3333 0.5556
vt 0.9444 0.6111
vt 0.6667 0.6667
vt 0.6667 0.3333
vt 0.0000 0.5556
vt 0.3333 1.0000
vt 0.0000 1.0000
vt 0.9444 1.0000
vt 0.6667 0.9444
vt 0.9444 0.6667
vt 1.0000 0.0000
vt 0.7500 0.3750
vt 0.7500 0.0000
vt 0.5000 0.4000
vt 0.7500 0.7750
vt 0.5000 0.7750
vt 0.2500 0.8000
vt 0.0000 0.4000
vt 0.2500 0.4000
vt 0.0000 0.0000
vt 0.3750 0.4000
vt 0.2500 0.8000
vt 0.5000 0.8000
vt 0.3750 0.0000
vt 0.7500 0.4000
vt 0.3750 0.4000
vt 0.3889 0.8889
vt 1.0000 0.3333
vt 0.6667 0.0000
vt 0.0000 0.0000
vt 0.6667 0.8889
vt 0.3333 0.5556
vt 0.3333 0.0556
vt 0.3889 0.9444
vt 0.6667 0.5556
vt 0.3333 0.5000
vt 0.9444 0.6667
vt 0.3333 0.5556
vt 0.6667 1.0000
vt 1.0000 0.3750
vt 0.7500 0.4000
vt 0.0000 0.8000
vt 0.3750 0.0000
vt 0.2500 0.4000
vt 0.7500 0.0000
vn 0.0000 -1.0000 0.0000
vn -1.0000 0.0000 0.0000
vn 0.0000 0.0000 -1.0000
vn 1.0000 0.0000 0.0000
vn 0.0000 -0.7071 -0.7071
vn 0.0000 1.0000 0.0000
vn 0.0000 -0.0000 1.0000
s off
f 76/66/56 73/67/56 81/68/56
f 67/69/57 74/70/57 72/71/57
f 78/72/58 74/73/58 68/74/58
f 76/75/59 75/76/59 70/77/59
f 76/78/60 83/79/60 75/80/60
f 80/81/56 66/82/56 72/83/56
f 71/84/61 67/85/61 70/86/61
f 78/72/60 72/87/60 74/73/60
f 81/88/57 79/89/57 83/90/57
f 83/91/56 82/92/56 78/93/56
f 82/94/59 80/95/59 78/96/59
f 85/97/56 87/98/56 84/99/56
f 91/100/61 89/101/61 88/102/61
f 88/103/59 85/104/59 84/105/59
f 89/106/62 86/107/62 85/104/62
f 86/108/57 91/100/57 87/109/57
f 84/110/58 91/111/58 88/112/58
f 76/66/56 69/113/56 73/67/56
f 72/71/57 66/114/57 67/69/57
f 67/69/57 68/115/57 74/70/57
f 68/74/58 71/116/58 83/79/58
f 83/79/58 78/72/58 68/74/58
f 71/116/58 75/80/58 83/79/58
f 71/117/59 70/77/59 75/76/59
f 69/118/59 76/75/59 70/77/59
f 76/78/60 81/119/60 83/79/60
f 80/81/56 77/120/56 66/82/56
f 71/84/61 68/121/61 67/85/61
f 78/72/60 80/122/60 72/87/60
f 81/88/57 73/123/57 79/89/57
f 83/91/56 79/124/56 82/92/56
f 82/94/59 77/125/59 80/95/59
f 85/97/56 86/126/56 87/98/56
f 91/100/61 90/127/61 89/101/61
f 88/103/59 89/128/59 85/104/59
f 89/106/62 90/129/62 86/107/62
f 86/108/57 90/130/57 91/100/57
f 84/110/58 87/131/58 91/111/58
